<svg width="368" height="576" viewBox="0 0 368 576" fill="none" xmlns="http://www.w3.org/2000/svg">
<g clip-path="url(#clip0_4211_2768)">
<path d="M320.146 69.397L306.347 55.8148C305.278 54.77 303.425 54.0093 301.936 54.0093H271.589C269.571 54.0093 267.936 55.6589 267.936 57.6752V121.343C267.936 123.369 269.571 125.009 271.589 125.009H318.347C320.365 125.009 322 123.369 322 121.343V73.8145C322 72.3023 321.224 70.4418 320.146 69.3879V69.397ZM305.352 59.9664L316.539 70.9826H305.352V59.9664ZM318.338 121.334H271.58V57.666H301.689V70.9826C301.689 73.008 303.324 74.6485 305.342 74.6485H318.329V121.334H318.338Z" fill="black"/>
<path d="M276.977 79.8999C276.977 80.908 277.799 81.7328 278.804 81.7328H311.151C312.155 81.7328 312.977 80.908 312.977 79.8999C312.977 78.8917 312.155 78.0669 311.151 78.0669H278.804C277.799 78.0669 276.977 78.8917 276.977 79.8999Z" fill="black"/>
<path d="M311.142 87.6714H278.795C277.79 87.6714 276.968 88.4962 276.968 89.5044C276.968 90.5125 277.79 91.3373 278.795 91.3373H311.142C312.146 91.3373 312.968 90.5125 312.968 89.5044C312.968 88.4962 312.146 87.6714 311.142 87.6714Z" fill="black"/>
<path d="M311.142 97.2671H278.795C277.79 97.2671 276.968 98.0919 276.968 99.1001C276.968 100.108 277.79 100.933 278.795 100.933H311.142C312.146 100.933 312.968 100.108 312.968 99.1001C312.968 98.0919 312.146 97.2671 311.142 97.2671Z" fill="black"/>
<path d="M263.269 87.6443H245.562C244.785 85.2614 242.557 83.5293 239.927 83.5293C236.658 83.5293 234 86.1963 234 89.4773C234 92.7583 236.658 95.4253 239.927 95.4253C242.557 95.4253 244.785 93.6931 245.562 91.3102H263.269C264.274 91.3102 265.096 90.4854 265.096 89.4773C265.096 88.4691 264.274 87.6443 263.269 87.6443ZM239.927 91.7593C238.676 91.7593 237.653 90.7329 237.653 89.4773C237.653 88.2217 238.676 87.1952 239.927 87.1952C241.178 87.1952 242.201 88.2217 242.201 89.4773C242.201 90.7329 241.178 91.7593 239.927 91.7593Z" fill="black"/>
<path d="M263.269 79.8724H256.338L251.279 73.8969C250.932 73.4845 250.42 73.2462 249.89 73.2462H245.589C244.831 70.8267 242.584 69.0762 239.936 69.0762C236.667 69.0762 234.009 71.7431 234.009 75.0242C234.009 78.3052 236.667 80.9721 239.936 80.9721C242.548 80.9721 244.758 79.2675 245.553 76.9213H249.05L254.11 82.8967C254.457 83.3092 254.968 83.5475 255.498 83.5475H263.279C264.283 83.5475 265.105 82.7226 265.105 81.7145C265.105 80.7064 264.283 79.8815 263.279 79.8815L263.269 79.8724ZM239.927 77.3062C238.676 77.3062 237.653 76.2797 237.653 75.0242C237.653 73.7686 238.676 72.7421 239.927 72.7421C241.178 72.7421 242.201 73.7686 242.201 75.0242C242.201 76.2797 241.178 77.3062 239.927 77.3062Z" fill="black"/>
<path d="M263.269 72.1005H259.014L259.069 67.7197C261.406 66.9224 263.087 64.7045 263.087 62.0925C263.087 58.8115 260.429 56.1445 257.16 56.1445C253.89 56.1445 251.233 58.8115 251.233 62.0925C251.233 64.7595 252.995 67.0232 255.406 67.7747L255.333 73.906C255.333 74.4009 255.516 74.8683 255.863 75.2166C256.21 75.5648 256.676 75.7573 257.16 75.7573H263.269C264.274 75.7573 265.096 74.9324 265.096 73.9243C265.096 72.9162 264.274 72.0913 263.269 72.0913V72.1005ZM257.16 64.3746C255.909 64.3746 254.886 63.3481 254.886 62.0925C254.886 60.8369 255.909 59.8105 257.16 59.8105C258.411 59.8105 259.434 60.8369 259.434 62.0925C259.434 63.3481 258.411 64.3746 257.16 64.3746Z" fill="black"/>
<path d="M263.269 95.416H255.489C254.95 95.416 254.447 95.6543 254.1 96.0667L249.041 102.042H245.543C244.758 99.6868 242.539 97.9913 239.927 97.9913C236.658 97.9913 234 100.658 234 103.939C234 107.22 236.658 109.887 239.927 109.887C242.575 109.887 244.831 108.128 245.58 105.717H249.881C250.42 105.717 250.922 105.479 251.269 105.067L256.329 99.0911H263.26C264.265 99.0911 265.087 98.2663 265.087 97.2582C265.087 96.25 264.265 95.4252 263.26 95.4252L263.269 95.416ZM239.927 106.212C238.676 106.212 237.653 105.186 237.653 103.93C237.653 102.675 238.676 101.648 239.927 101.648C241.178 101.648 242.201 102.675 242.201 103.93C242.201 105.186 241.178 106.212 239.927 106.212Z" fill="black"/>
<path d="M263.269 103.188H257.16C256.667 103.188 256.201 103.38 255.863 103.729C255.525 104.077 255.333 104.553 255.333 105.039L255.406 111.17C252.986 111.922 251.233 114.186 251.233 116.853C251.233 120.134 253.89 122.801 257.16 122.801C260.429 122.801 263.087 120.134 263.087 116.853C263.087 114.241 261.397 112.023 259.069 111.225L259.014 106.845H263.269C264.274 106.845 265.096 106.02 265.096 105.012C265.096 104.004 264.274 103.179 263.269 103.179V103.188ZM259.434 116.862C259.434 118.117 258.411 119.144 257.16 119.144C255.909 119.144 254.886 118.117 254.886 116.862C254.886 115.606 255.909 114.58 257.16 114.58C258.411 114.58 259.434 115.606 259.434 116.862Z" fill="black"/>
</g>
<circle cx="278" cy="90" r="87" stroke="black" stroke-width="5" stroke-linecap="round" stroke-linejoin="round" stroke-dasharray="0.1 10"/>
<g clip-path="url(#clip1_4211_2768)">
<path d="M126.638 276.704L126.565 276.631C126.464 276.54 126.354 276.395 126.254 276.231C126.006 275.831 125.805 275.294 125.805 274.949V273.503V234.637C125.805 232.628 124.166 231 122.142 231H57.8493C55.8253 231 54.1859 232.628 54.1859 234.637V274.958C54.1859 275.44 53.7921 276.313 53.4349 276.64L53.3617 276.713C45 285.024 45 286.043 45 286.779V291.363C45 293.372 46.6394 295 48.6634 295H131.337C133.361 295 135 293.372 135 291.363V286.779C135 286.043 135 285.024 126.638 276.704ZM99.0714 288.962C99.0714 289.962 98.2472 290.781 97.2398 290.781H82.7694C81.762 290.781 80.9377 289.962 80.9377 288.962V288.18C80.9377 287.18 81.762 286.361 82.7694 286.361H97.2398C98.2472 286.361 99.0714 287.18 99.0714 288.18V288.962ZM122.151 269.875H57.8493V234.637H122.142V269.875H122.151Z" fill="black"/>
<path d="M80.8279 260.69C80.8279 260.69 80.8645 260.708 80.8828 260.708C80.9011 260.708 80.9103 260.708 80.9286 260.699C80.9561 260.681 80.9836 260.645 80.9836 260.608V257.653C80.9836 257.653 80.9653 257.589 80.9378 257.571L73.8766 252.788L80.9378 248.005C80.9378 248.005 80.9836 247.959 80.9836 247.923V244.977C80.9836 244.977 80.9652 244.904 80.9286 244.895C80.9103 244.886 80.9011 244.886 80.8828 244.886C80.8645 244.886 80.8462 244.886 80.8279 244.904L70.662 251.797C70.662 251.797 70.6162 251.842 70.6162 251.879V253.734C70.6162 253.734 70.6345 253.797 70.662 253.816L80.8279 260.708V260.69Z" fill="black"/>
<path d="M98.7967 260.709C98.7967 260.709 98.8333 260.709 98.8516 260.69L109.017 253.797C109.017 253.797 109.063 253.752 109.063 253.716V251.861C109.063 251.861 109.045 251.797 109.017 251.779L98.8516 244.886C98.8516 244.886 98.815 244.868 98.7967 244.868C98.7783 244.868 98.7692 244.868 98.7509 244.877C98.7234 244.895 98.6959 244.922 98.6959 244.959V247.914C98.6959 247.914 98.7142 247.978 98.7417 247.996L105.803 252.779L98.7417 257.562C98.7417 257.562 98.6959 257.617 98.6959 257.644V260.59C98.6959 260.59 98.7142 260.663 98.7509 260.681C98.7692 260.681 98.7783 260.69 98.7967 260.69V260.709Z" fill="black"/>
<path d="M85.1965 262.036H88.0359C88.0359 262.036 88.1183 262.009 88.1275 261.972L94.5757 243.394C94.5757 243.394 94.5757 243.331 94.5665 243.303C94.5482 243.276 94.5207 243.258 94.4841 243.258H91.6447C91.6447 243.258 91.5622 243.285 91.5531 243.321L85.0957 261.899C85.0957 261.899 85.0957 261.963 85.1049 261.981C85.1232 262.009 85.1507 262.027 85.1873 262.027L85.1965 262.036Z" fill="black"/>
</g>
<circle cx="90" cy="263" r="87" stroke="black" stroke-width="5" stroke-linecap="round" stroke-linejoin="round" stroke-dasharray="0.1 10"/>
<g clip-path="url(#clip2_4211_2768)">
<path d="M278.948 464.114H262.162V460.278C262.162 459.847 262.016 459.434 261.742 459.103L260.91 458.103C260.837 458.02 260.764 457.938 260.681 457.864C254.629 452.79 246.611 450 238.099 450C220.399 450 206 462.214 206 477.227C206 485.211 210.059 492.69 217.163 497.875L211.641 504.675C211.166 505.253 211.092 506.07 211.458 506.721C211.824 507.382 212.546 507.749 213.287 507.657C223.17 506.418 238.054 504.555 239.132 504.436C242.725 504.344 246.227 503.72 249.518 502.665V521H251.877C251.877 521 251.877 521 251.886 521H292.991V477.943L278.948 464.114ZM279.844 470.134L287.359 477.53H279.844V470.134ZM238.968 500.765C238.858 500.765 238.602 500.765 217.346 503.445L221.25 498.646C221.579 498.242 221.716 497.719 221.643 497.196C221.561 496.682 221.268 496.223 220.829 495.938C220.829 495.938 220.253 495.571 219.979 495.379C213.415 490.882 209.657 484.266 209.657 477.227C209.657 464.242 222.42 453.671 238.099 453.671C245.697 453.671 252.828 456.121 258.204 460.581L258.505 460.948V493.479C258.277 493.635 258.094 493.846 257.948 494.085C252.828 498.223 246.117 500.6 238.977 500.784L238.968 500.765ZM289.334 517.32H254.483L258.834 505.17H282.706C283.711 505.17 284.534 504.344 284.534 503.335C284.534 502.325 283.711 501.5 282.706 501.5H260.151L261.824 496.829H282.706C283.711 496.829 284.534 496.003 284.534 494.993C284.534 493.984 283.711 493.158 282.706 493.158H262.162V488.487H282.706C283.711 488.487 284.534 487.661 284.534 486.652C284.534 485.642 283.711 484.816 282.706 484.816H262.162V467.784H276.187V477.53C276.187 479.558 277.823 481.201 279.844 481.201H289.334V517.32Z" fill="black"/>
<path d="M225.337 472.85C223.307 472.85 221.661 474.502 221.661 476.539C221.661 478.576 223.307 480.228 225.337 480.228C227.367 480.228 229.012 478.576 229.012 476.539C229.012 474.502 227.367 472.85 225.337 472.85Z" fill="black"/>
<path d="M238.026 472.85C235.997 472.85 234.351 474.502 234.351 476.539C234.351 478.576 235.997 480.228 238.026 480.228C240.056 480.228 241.702 478.576 241.702 476.539C241.702 474.502 240.056 472.85 238.026 472.85Z" fill="black"/>
<path d="M250.716 472.85C248.686 472.85 247.041 474.502 247.041 476.539C247.041 478.576 248.686 480.228 250.716 480.228C252.746 480.228 254.392 478.576 254.392 476.539C254.392 474.502 252.746 472.85 250.716 472.85Z" fill="black"/>
</g>
<circle cx="249" cy="486" r="87" stroke="black" stroke-width="5" stroke-linecap="round" stroke-linejoin="round" stroke-dasharray="0.1 10"/>
<path d="M202.297 133.587C192.828 137.558 168.21 149.349 143.653 144.584C119.096 139.818 93.1035 164.439 80.8861 176.658" stroke="black" stroke-width="5" stroke-dasharray="0.1 10"/>
<path d="M99.2119 349.857C90.3543 370.629 73.2805 413.455 90.5071 424.085C112.04 437.373 150.525 412.172 166.102 418.129C178.564 422.894 180.152 423.322 184.887 427.751" stroke="black" stroke-width="5" stroke-linecap="round" stroke-dasharray="0.1 10"/>
<defs>
<clipPath id="clip0_4211_2768">
<rect width="88" height="71" fill="white" transform="translate(234 54)"/>
</clipPath>
<clipPath id="clip1_4211_2768">
<rect width="90" height="64" fill="white" transform="translate(45 231)"/>
</clipPath>
<clipPath id="clip2_4211_2768">
<rect width="87" height="71" fill="white" transform="translate(206 450)"/>
</clipPath>
</defs>
</svg>
