<svg width="235" height="232" viewBox="0 0 235 232" fill="none" xmlns="http://www.w3.org/2000/svg">
<path d="M73.7511 162.839C55.3216 160.418 9.24956 147.828 1.00463 108.605C-7.24031 69.382 36.8928 -11.969 73.7511 6.4319C110.609 24.8328 186.267 -34.244 219.245 33.5486C252.223 101.341 227.974 143.469 196.451 152.67C164.928 161.87 151.348 171.07 169.777 182.692C188.206 194.314 169.777 203.998 169.777 215.136C169.777 225.342 203.583 230.262 209.233 231.013C209.518 231.042 209.783 231.076 210.03 231.116C210.03 231.116 209.749 231.082 209.233 231.013C199.258 230.026 166.585 236.161 156.683 226.273C146.498 216.105 164.927 206.904 156.683 197.704C148.438 188.503 143.588 187.05 130.009 179.787C116.429 172.524 92.1806 165.26 73.7511 162.839Z" fill="white"/>
</svg>
