<svg width="112" height="112" viewBox="0 0 112 112" fill="none" xmlns="http://www.w3.org/2000/svg">
<path d="M87.79 32.38H69.43V28.2C69.43 27.73 69.27 27.28 68.97 26.92L68.06 25.83C67.98 25.74 67.9 25.65 67.81 25.57C61.19 20.04 52.42 17 43.11 17C23.75 17 8 30.31 8 46.67C8 55.37 12.44 63.52 20.21 69.17L14.17 76.58C13.65 77.21 13.57 78.1 13.97 78.81C14.37 79.53 15.16 79.93 15.97 79.83C26.78 78.48 43.06 76.45 44.24 76.32C48.17 76.22 52 75.54 55.6 74.39V94.37H58.18C58.18 94.37 58.18 94.37 58.19 94.37H103.15V47.45L87.79 32.38ZM88.77 38.94L96.99 47H88.77V38.94ZM44.06 72.32C43.94 72.32 43.66 72.32 20.41 75.24L24.68 70.01C25.04 69.57 25.19 69 25.11 68.43C25.02 67.87 24.7 67.37 24.22 67.06C24.22 67.06 23.59 66.66 23.29 66.45C16.11 61.55 12 54.34 12 46.67C12 32.52 25.96 21 43.11 21C51.42 21 59.22 23.67 65.1 28.53L65.43 28.93V64.38C65.18 64.55 64.98 64.78 64.82 65.04C59.22 69.55 51.88 72.14 44.07 72.34L44.06 72.32ZM99.15 90.36H61.03L65.79 77.12H91.9C93 77.12 93.9 76.22 93.9 75.12C93.9 74.02 93 73.12 91.9 73.12H67.23L69.06 68.03H91.9C93 68.03 93.9 67.13 93.9 66.03C93.9 64.93 93 64.03 91.9 64.03H69.43V58.94H91.9C93 58.94 93.9 58.04 93.9 56.94C93.9 55.84 93 54.94 91.9 54.94H69.43V36.38H84.77V47C84.77 49.21 86.56 51 88.77 51H99.15V90.36Z" fill="black"/>
<path d="M29.1494 41.9001C26.9294 41.9001 25.1294 43.7001 25.1294 45.9201C25.1294 48.1401 26.9294 49.9401 29.1494 49.9401C31.3694 49.9401 33.1694 48.1401 33.1694 45.9201C33.1694 43.7001 31.3694 41.9001 29.1494 41.9001Z" fill="black"/>
<path d="M43.0298 41.8999C40.8098 41.8999 39.0098 43.6999 39.0098 45.9199C39.0098 48.1399 40.8098 49.9399 43.0298 49.9399C45.2498 49.9399 47.0498 48.1399 47.0498 45.9199C47.0498 43.6999 45.2498 41.8999 43.0298 41.8999Z" fill="black"/>
<path d="M56.9101 41.8999C54.6901 41.8999 52.8901 43.6999 52.8901 45.9199C52.8901 48.1399 54.6901 49.9399 56.9101 49.9399C59.1301 49.9399 60.9301 48.1399 60.9301 45.9199C60.9301 43.6999 59.1301 41.8999 56.9101 41.8999Z" fill="black"/>
</svg>
