<svg width="112" height="112" viewBox="0 0 112 112" fill="none" xmlns="http://www.w3.org/2000/svg">
<path d="M56.4901 27.0933C40.5101 27.0933 27.5601 40.0433 27.5601 56.0233C27.5601 72.0033 40.5101 84.9533 56.4901 84.9533C72.4701 84.9533 85.4201 72.0033 85.4201 56.0233C85.4201 40.0433 72.4701 27.0933 56.4901 27.0933ZM49.0601 42.1733C49.0601 38.0733 52.3901 34.7433 56.4901 34.7433C60.5901 34.7433 63.9201 38.0733 63.9201 42.1733V56.5033C63.9201 60.6033 60.5901 63.9333 56.4901 63.9333C52.3901 63.9333 49.0601 60.6033 49.0601 56.5033V42.1733ZM58.6201 71.2733V77.8533H54.3701V71.2733C47.1501 70.2433 41.5801 64.0133 41.5801 56.5033C41.5801 55.3333 42.5301 54.3733 43.7101 54.3733C44.8901 54.3733 45.8401 55.3233 45.8401 56.5033C45.8401 62.3833 50.6301 67.1733 56.5101 67.1733C62.3901 67.1733 67.1801 62.3833 67.1801 56.5033C67.1801 55.3333 68.1301 54.3733 69.3101 54.3733C70.4901 54.3733 71.4401 55.3233 71.4401 56.5033C71.4401 64.0033 65.8701 70.2333 58.6501 71.2733H58.6201Z" fill="black"/>
<path d="M101.29 26.903C100.69 25.983 99.4503 25.723 98.5203 26.323C97.6003 26.923 97.3403 28.163 97.9403 29.093C103.19 37.113 105.97 46.423 105.97 56.023C105.97 65.623 103.19 74.933 97.9403 82.953C97.3303 83.873 97.5903 85.113 98.5203 85.723C98.8603 85.943 99.2403 86.053 99.6103 86.053C100.26 86.053 100.9 85.733 101.28 85.153C106.96 76.483 109.96 66.413 109.96 56.033C109.96 45.653 106.96 35.583 101.28 26.913L101.29 26.903Z" fill="black"/>
<path d="M95.9303 32.363C95.3603 31.423 94.1303 31.113 93.1803 31.683C92.2303 32.253 91.9303 33.483 92.5003 34.433C96.4303 40.933 98.5103 48.403 98.5103 56.033C98.5103 63.663 96.4303 71.133 92.5003 77.633C91.9303 78.583 92.2303 79.803 93.1803 80.383C93.5003 80.583 93.8603 80.673 94.2103 80.673C94.8903 80.673 95.5503 80.333 95.9203 79.713C100.23 72.593 102.51 64.403 102.51 56.043C102.51 47.683 100.23 39.493 95.9203 32.373L95.9303 32.363Z" fill="black"/>
<path d="M90.5602 37.8732C90.0402 36.9032 88.8202 36.5332 87.8502 37.0632C86.8802 37.5832 86.5102 38.8032 87.0402 39.7732C89.7102 44.7432 91.1302 50.3632 91.1302 56.0432C91.1302 61.7232 89.7202 67.3432 87.0402 72.3132C86.5202 73.2832 86.8802 74.5032 87.8502 75.0232C88.1502 75.1832 88.4802 75.2632 88.8002 75.2632C89.5102 75.2632 90.2002 74.8832 90.5602 74.2132C93.5402 68.6632 95.1202 62.3832 95.1202 56.0532C95.1202 49.7232 93.5402 43.4432 90.5602 37.8932V37.8732Z" fill="black"/>
<path d="M7 56.3632C7 46.7632 9.78 37.4532 15.03 29.4332C15.64 28.5132 15.38 27.2732 14.45 26.6632C13.53 26.0532 12.29 26.3132 11.68 27.2432C6 35.9132 3 45.9832 3 56.3632C3 66.7432 6 76.8132 11.68 85.4832C12.06 86.0732 12.7 86.3832 13.35 86.3832C13.73 86.3832 14.11 86.2732 14.44 86.0532C15.36 85.4532 15.62 84.2132 15.02 83.2832C9.77 75.2632 6.99 65.9532 6.99 56.3532L7 56.3632Z" fill="black"/>
<path d="M14.4499 56.3632C14.4499 48.7332 16.5299 41.2632 20.4599 34.7632C21.0299 33.8232 20.7299 32.5932 19.7799 32.0132C18.8299 31.4432 17.6099 31.7432 17.0299 32.6932C12.7199 39.8132 10.4399 48.0032 10.4399 56.3632C10.4399 64.7232 12.7199 72.9132 17.0299 80.0332C17.4099 80.6532 18.0699 80.9932 18.7399 80.9932C19.0899 80.9932 19.4499 80.9032 19.7699 80.7032C20.7099 80.1332 21.0199 78.9032 20.4499 77.9532C16.5199 71.4532 14.4399 63.9832 14.4399 56.3532L14.4499 56.3632Z" fill="black"/>
<path d="M25.1201 37.3932C24.1501 36.8732 22.9401 37.2332 22.4101 38.2032C19.4201 43.7532 17.8501 50.0332 17.8501 56.3632C17.8501 62.6932 19.4301 68.9732 22.4101 74.5232C22.7701 75.1932 23.4601 75.5732 24.1701 75.5732C24.4901 75.5732 24.8101 75.4932 25.1201 75.3332C26.0901 74.8132 26.4601 73.5932 25.9301 72.6232C23.2601 67.6532 21.8401 62.0332 21.8401 56.3632C21.8401 50.6932 23.2501 45.0632 25.9301 40.1032C26.4501 39.1332 26.0901 37.9132 25.1201 37.3932Z" fill="black"/>
</svg>
