<svg width="112" height="112" viewBox="0 0 112 112" fill="none" xmlns="http://www.w3.org/2000/svg">
<path d="M96.14 71.26L96.06 71.18C95.95 71.08 95.83 70.92 95.72 70.74C95.45 70.3 95.23 69.71 95.23 69.33V67.74V25C95.23 22.79 93.44 21 91.23 21H21.03C18.82 21 17.03 22.79 17.03 25V69.34C17.03 69.87 16.6 70.83 16.21 71.19L16.13 71.27C7 80.41 7 81.53 7 82.34V87.38C7 89.59 8.79 91.38 11 91.38H101.27C103.48 91.38 105.27 89.59 105.27 87.38V82.34C105.27 81.53 105.27 80.41 96.14 71.26ZM66.04 84.74C66.04 85.84 65.14 86.74 64.04 86.74H48.24C47.14 86.74 46.24 85.84 46.24 84.74V83.88C46.24 82.78 47.14 81.88 48.24 81.88H64.04C65.14 81.88 66.04 82.78 66.04 83.88V84.74ZM91.24 63.75H21.03V25H91.23V63.75H91.24Z" fill="black"/>
<path d="M46.1207 53.65C46.1207 53.65 46.1607 53.67 46.1807 53.67C46.2007 53.67 46.2107 53.67 46.2307 53.66C46.2607 53.64 46.2907 53.6 46.2907 53.56V50.31C46.2907 50.31 46.2707 50.24 46.2407 50.22L38.5307 44.96L46.2407 39.7C46.2407 39.7 46.2907 39.65 46.2907 39.61V36.37C46.2907 36.37 46.2707 36.29 46.2307 36.28C46.2107 36.27 46.2007 36.27 46.1807 36.27C46.1607 36.27 46.1407 36.27 46.1207 36.29L35.0207 43.87C35.0207 43.87 34.9707 43.92 34.9707 43.96V46C34.9707 46 34.9907 46.07 35.0207 46.09L46.1207 53.67V53.65Z" fill="black"/>
<path d="M65.7399 53.67C65.7399 53.67 65.7799 53.67 65.7999 53.65L76.8999 46.07C76.8999 46.07 76.9499 46.02 76.9499 45.98V43.94C76.9499 43.94 76.9299 43.87 76.8999 43.85L65.7999 36.27C65.7999 36.27 65.7599 36.25 65.7399 36.25C65.7199 36.25 65.7099 36.25 65.6899 36.26C65.6599 36.28 65.6299 36.31 65.6299 36.35V39.6C65.6299 39.6 65.6499 39.67 65.6799 39.69L73.3899 44.95L65.6799 50.21C65.6799 50.21 65.6299 50.27 65.6299 50.3V53.54C65.6299 53.54 65.6499 53.62 65.6899 53.64C65.7099 53.64 65.7199 53.65 65.7399 53.65V53.67Z" fill="black"/>
<path d="M50.8893 55.13H53.9893C53.9893 55.13 54.0793 55.1 54.0893 55.06L61.1293 34.63C61.1293 34.63 61.1293 34.56 61.1193 34.53C61.0993 34.5 61.0693 34.48 61.0293 34.48H57.9293C57.9293 34.48 57.8393 34.51 57.8293 34.55L50.7793 54.98C50.7793 54.98 50.7793 55.05 50.7893 55.07C50.8093 55.1 50.8393 55.12 50.8793 55.12L50.8893 55.13Z" fill="black"/>
</svg>
