<svg width="112" height="112" viewBox="0 0 112 112" fill="none" xmlns="http://www.w3.org/2000/svg">
<path d="M100.36 17H49.1602C46.9502 17 45.1602 18.79 45.1602 21V90.47C45.1602 92.68 46.9502 94.47 49.1602 94.47H100.36C102.57 94.47 104.36 92.68 104.36 90.47V21C104.36 18.79 102.57 17 100.36 17ZM100.36 90.47H49.1602V21H100.36V90.47Z" fill="black"/>
<path d="M40.05 53.7H20.66C19.81 51.1 17.37 49.21 14.49 49.21C10.91 49.21 8 52.12 8 55.7C8 59.28 10.91 62.19 14.49 62.19C17.37 62.19 19.81 60.3 20.66 57.7H40.05C41.15 57.7 42.05 56.8 42.05 55.7C42.05 54.6 41.15 53.7 40.05 53.7ZM14.49 58.19C13.12 58.19 12 57.07 12 55.7C12 54.33 13.12 53.21 14.49 53.21C15.86 53.21 16.98 54.33 16.98 55.7C16.98 57.07 15.86 58.19 14.49 58.19Z" fill="black"/>
<path d="M40.0498 45.2199H32.4598L26.9198 38.6999C26.5398 38.2499 25.9798 37.9899 25.3998 37.9899H20.6898C19.8598 35.3499 17.3998 33.4399 14.4998 33.4399C10.9198 33.4399 8.00977 36.3499 8.00977 39.9299C8.00977 43.5099 10.9198 46.4199 14.4998 46.4199C17.3598 46.4199 19.7798 44.5599 20.6498 41.9999H24.4798L30.0198 48.5199C30.3998 48.9699 30.9598 49.2299 31.5398 49.2299H40.0598C41.1598 49.2299 42.0598 48.3299 42.0598 47.2299C42.0598 46.1299 41.1598 45.2299 40.0598 45.2299L40.0498 45.2199ZM14.4898 42.4199C13.1198 42.4199 11.9998 41.2999 11.9998 39.9299C11.9998 38.5599 13.1198 37.4399 14.4898 37.4399C15.8598 37.4399 16.9798 38.5599 16.9798 39.9299C16.9798 41.2999 15.8598 42.4199 14.4898 42.4199Z" fill="black"/>
<path d="M40.0501 36.7401H35.3901L35.4501 31.9601C38.0101 31.0901 39.8501 28.6701 39.8501 25.8201C39.8501 22.2401 36.9401 19.3301 33.3601 19.3301C29.7801 19.3301 26.8701 22.2401 26.8701 25.8201C26.8701 28.7301 28.8001 31.2001 31.4401 32.0201L31.3601 38.7101C31.3601 39.2501 31.5601 39.7601 31.9401 40.1401C32.3201 40.5201 32.8301 40.7301 33.3601 40.7301H40.0501C41.1501 40.7301 42.0501 39.8301 42.0501 38.7301C42.0501 37.6301 41.1501 36.7301 40.0501 36.7301V36.7401ZM33.3601 28.3101C31.9901 28.3101 30.8701 27.1901 30.8701 25.8201C30.8701 24.4501 31.9901 23.3301 33.3601 23.3301C34.7301 23.3301 35.8501 24.4501 35.8501 25.8201C35.8501 27.1901 34.7301 28.3101 33.3601 28.3101Z" fill="black"/>
<path d="M40.05 62.1802H31.53C30.94 62.1802 30.39 62.4402 30.01 62.8902L24.47 69.4102H20.64C19.78 66.8402 17.35 64.9902 14.49 64.9902C10.91 64.9902 8 67.9002 8 71.4802C8 75.0602 10.91 77.9702 14.49 77.9702C17.39 77.9702 19.86 76.0502 20.68 73.4202H25.39C25.98 73.4202 26.53 73.1602 26.91 72.7102L32.45 66.1902H40.04C41.14 66.1902 42.04 65.2902 42.04 64.1902C42.04 63.0902 41.14 62.1902 40.04 62.1902L40.05 62.1802ZM14.49 73.9602C13.12 73.9602 12 72.8402 12 71.4702C12 70.1002 13.12 68.9802 14.49 68.9802C15.86 68.9802 16.98 70.1002 16.98 71.4702C16.98 72.8402 15.86 73.9602 14.49 73.9602Z" fill="black"/>
<path d="M40.0501 70.6599H33.3601C32.8201 70.6599 32.3101 70.8699 31.9401 71.2499C31.5701 71.6299 31.3601 72.1499 31.3601 72.6799L31.4401 79.3699C28.7901 80.1899 26.8701 82.6599 26.8701 85.5699C26.8701 89.1499 29.7801 92.0599 33.3601 92.0599C36.9401 92.0599 39.8501 89.1499 39.8501 85.5699C39.8501 82.7199 38.0001 80.2999 35.4501 79.4299L35.3901 74.6499H40.0501C41.1501 74.6499 42.0501 73.7499 42.0501 72.6499C42.0501 71.5499 41.1501 70.6499 40.0501 70.6499V70.6599ZM35.8501 85.5799C35.8501 86.9499 34.7301 88.0699 33.3601 88.0699C31.9901 88.0699 30.8701 86.9499 30.8701 85.5799C30.8701 84.2099 31.9901 83.0899 33.3601 83.0899C34.7301 83.0899 35.8501 84.2099 35.8501 85.5799Z" fill="black"/>
<path d="M83.2999 49.5698C82.7999 48.7998 81.9399 48.3398 81.0199 48.3398C80.0999 48.3398 79.2499 48.7998 78.7399 49.5698L69.9499 62.9398L65.0999 57.4398C64.5399 56.7998 63.7099 56.4598 62.8599 56.5198C62.0099 56.5798 61.2399 57.0298 60.7699 57.7398L52.6299 70.1398H96.8799L83.2899 49.5498L83.2999 49.5698Z" fill="black"/>
<path d="M64.9001 52.3701C67.9501 52.3701 70.4301 49.8901 70.4301 46.8401C70.4301 43.7901 67.9501 41.3101 64.9001 41.3101C61.8501 41.3101 59.3701 43.7901 59.3701 46.8401C59.3701 49.9001 61.8501 52.3701 64.9001 52.3701Z" fill="black"/>
</svg>
