<svg width="112" height="112" viewBox="0 0 112 112" fill="none" xmlns="http://www.w3.org/2000/svg">
<path d="M102.33 33.79L87.2202 18.97C86.0502 17.83 84.0202 17 82.3902 17L49.1602 17C46.9502 17 45.1602 18.8 45.1602 21L45.1602 90.47C45.1602 92.68 46.9502 94.47 49.1602 94.47H100.36C102.57 94.47 104.36 92.68 104.36 90.47V38.61C104.36 36.96 103.51 34.93 102.33 33.78V33.79ZM86.1302 23.5L98.3802 35.52H86.1302V23.5ZM100.35 90.46H49.1502L49.1502 20.99L82.1202 20.99V35.52C82.1202 37.73 83.9102 39.52 86.1202 39.52H100.34V90.46H100.35Z" fill="black"/>
<path d="M55.0601 45.25C55.0601 46.35 55.9601 47.25 57.0601 47.25H92.4801C93.5801 47.25 94.4801 46.35 94.4801 45.25C94.4801 44.15 93.5801 43.25 92.4801 43.25H57.0601C55.9601 43.25 55.0601 44.15 55.0601 45.25Z" fill="black"/>
<path d="M92.4703 53.73H57.0503C55.9503 53.73 55.0503 54.63 55.0503 55.73C55.0503 56.83 55.9503 57.73 57.0503 57.73H92.4703C93.5703 57.73 94.4703 56.83 94.4703 55.73C94.4703 54.63 93.5703 53.73 92.4703 53.73Z" fill="black"/>
<path d="M92.4703 64.2H57.0503C55.9503 64.2 55.0503 65.1 55.0503 66.2C55.0503 67.3 55.9503 68.2 57.0503 68.2H92.4703C93.5703 68.2 94.4703 67.3 94.4703 66.2C94.4703 65.1 93.5703 64.2 92.4703 64.2Z" fill="black"/>
<path d="M40.05 53.7H20.66C19.81 51.1 17.37 49.21 14.49 49.21C10.91 49.21 8 52.12 8 55.7C8 59.28 10.91 62.19 14.49 62.19C17.37 62.19 19.81 60.3 20.66 57.7H40.05C41.15 57.7 42.05 56.8 42.05 55.7C42.05 54.6 41.15 53.7 40.05 53.7ZM14.49 58.19C13.12 58.19 12 57.07 12 55.7C12 54.33 13.12 53.21 14.49 53.21C15.86 53.21 16.98 54.33 16.98 55.7C16.98 57.07 15.86 58.19 14.49 58.19Z" fill="black"/>
<path d="M40.0503 45.2199H32.4603L26.9203 38.6999C26.5403 38.2499 25.9803 37.9899 25.4003 37.9899H20.6903C19.8603 35.3499 17.4003 33.4399 14.5003 33.4399C10.9203 33.4399 8.01025 36.3499 8.01025 39.9299C8.01025 43.5099 10.9203 46.4199 14.5003 46.4199C17.3603 46.4199 19.7803 44.5599 20.6503 41.9999H24.4803L30.0203 48.5199C30.4003 48.9699 30.9603 49.2299 31.5403 49.2299H40.0603C41.1603 49.2299 42.0603 48.3299 42.0603 47.2299C42.0603 46.1299 41.1603 45.2299 40.0603 45.2299L40.0503 45.2199ZM14.4903 42.4199C13.1203 42.4199 12.0003 41.2999 12.0003 39.9299C12.0003 38.5599 13.1203 37.4399 14.4903 37.4399C15.8603 37.4399 16.9803 38.5599 16.9803 39.9299C16.9803 41.2999 15.8603 42.4199 14.4903 42.4199Z" fill="black"/>
<path d="M40.0501 36.7401H35.3901L35.4501 31.9601C38.0101 31.0901 39.8501 28.6701 39.8501 25.8201C39.8501 22.2401 36.9401 19.3301 33.3601 19.3301C29.7801 19.3301 26.8701 22.2401 26.8701 25.8201C26.8701 28.7301 28.8001 31.2001 31.4401 32.0201L31.3601 38.7101C31.3601 39.2501 31.5601 39.7601 31.9401 40.1401C32.3201 40.5201 32.8301 40.7301 33.3601 40.7301H40.0501C41.1501 40.7301 42.0501 39.8301 42.0501 38.7301C42.0501 37.6301 41.1501 36.7301 40.0501 36.7301V36.7401ZM33.3601 28.3101C31.9901 28.3101 30.8701 27.1901 30.8701 25.8201C30.8701 24.4501 31.9901 23.3301 33.3601 23.3301C34.7301 23.3301 35.8501 24.4501 35.8501 25.8201C35.8501 27.1901 34.7301 28.3101 33.3601 28.3101Z" fill="black"/>
<path d="M40.05 62.1799H31.53C30.94 62.1799 30.39 62.4399 30.01 62.8899L24.47 69.4099H20.64C19.78 66.8399 17.35 64.9899 14.49 64.9899C10.91 64.9899 8 67.8999 8 71.4799C8 75.0599 10.91 77.9699 14.49 77.9699C17.39 77.9699 19.86 76.0499 20.68 73.4199H25.39C25.98 73.4199 26.53 73.1599 26.91 72.7099L32.45 66.1899H40.04C41.14 66.1899 42.04 65.2899 42.04 64.1899C42.04 63.0899 41.14 62.1899 40.04 62.1899L40.05 62.1799ZM14.49 73.9599C13.12 73.9599 12 72.8399 12 71.4699C12 70.0999 13.12 68.9799 14.49 68.9799C15.86 68.9799 16.98 70.0999 16.98 71.4699C16.98 72.8399 15.86 73.9599 14.49 73.9599Z" fill="black"/>
<path d="M40.0501 70.6601H33.3601C32.8201 70.6601 32.3101 70.8701 31.9401 71.2501C31.5701 71.6301 31.3601 72.1501 31.3601 72.6801L31.4401 79.3701C28.7901 80.1901 26.8701 82.6601 26.8701 85.5701C26.8701 89.1501 29.7801 92.0601 33.3601 92.0601C36.9401 92.0601 39.8501 89.1501 39.8501 85.5701C39.8501 82.7201 38.0001 80.3001 35.4501 79.4301L35.3901 74.6501H40.0501C41.1501 74.6501 42.0501 73.7501 42.0501 72.6501C42.0501 71.5501 41.1501 70.6501 40.0501 70.6501V70.6601ZM35.8501 85.5801C35.8501 86.9501 34.7301 88.0701 33.3601 88.0701C31.9901 88.0701 30.8701 86.9501 30.8701 85.5801C30.8701 84.2101 31.9901 83.0901 33.3601 83.0901C34.7301 83.0901 35.8501 84.2101 35.8501 85.5801Z" fill="black"/>
</svg>
