<svg width="150" height="150" viewBox="0 0 150 150" fill="none" xmlns="http://www.w3.org/2000/svg">
<circle cx="75" cy="75" r="75" fill="white"/>
<g clip-path="url(#clip0_4211_3279)">
<path d="M116.182 60.005L103.134 51.3085V42.413C103.134 41.3185 102.234 40.4229 101.136 40.4229H86.7987L76.5381 33.5871C75.3592 32.801 73.6408 32.801 72.4619 33.5871L62.2013 40.4229H47.8645C46.7655 40.4229 45.8663 41.3185 45.8663 42.413V51.3085L32.8183 60.005C31.7493 60.7115 31 62.1045 31 63.3881V113.886C31 115.597 32.3987 116.99 34.1171 116.99H114.883C116.601 116.99 118 115.597 118 113.886V63.3981C118 62.1145 117.251 60.7214 116.182 60.015V60.005ZM103.134 56.0946L112.855 62.5722L103.134 71.607V56.0946ZM74.5 37.0199L79.6153 40.4229H69.3847L74.5 37.0199ZM49.8527 44.403H99.1373V75.3185L86.9386 86.6518H62.0914L49.8527 75.2588V44.403ZM45.8563 56.1045V71.5473L36.1852 62.5523L45.8563 56.1045ZM34.9863 66.8806L58.3548 88.6219L34.9963 110.313V66.8806H34.9863ZM37.9336 113.02L62.0415 90.6418H86.9286L111.016 113.02H37.9436H37.9336ZM113.994 110.343L90.6452 88.6518L113.994 66.9702V110.343Z" fill="#FFA426"/>
<path d="M72.2721 75.9253C72.2721 78.2835 73.1912 80.5124 74.8697 82.1741C76.5481 83.8358 78.876 84.7612 81.1439 84.7612C83.4118 84.7612 85.6897 83.8955 87.4181 82.1741C90.8849 78.7313 90.8849 73.1194 87.4181 69.6666C84.3809 66.6418 79.6753 66.2736 76.2284 68.5522L70.2439 62.592L75.609 57.2487C76.3883 56.4726 76.3883 55.2089 75.609 54.4328C74.8297 53.6567 73.5609 53.6567 72.7816 54.4328L67.4165 59.7761L62.601 54.9801L67.966 49.6368C68.7453 48.8607 68.7453 47.597 67.966 46.8209C67.1867 46.0447 65.9179 46.0447 65.1386 46.8209L58.3648 53.5671C57.9852 53.9452 57.7754 54.4427 57.7754 54.9701C57.7754 55.4975 57.9852 56.0049 58.3648 56.3731L73.4909 71.4378C72.7017 72.7811 72.2721 74.3034 72.2721 75.9054V75.9253ZM77.6971 72.4826C78.6462 71.5373 79.8951 71.0597 81.1539 71.0597C82.4127 71.0597 83.6516 71.5373 84.6107 72.4826C86.519 74.383 86.519 77.4676 84.6107 79.3582C82.7025 81.2487 79.6053 81.2487 77.7071 79.3582C76.7879 78.4427 76.2784 77.2189 76.2784 75.9154C76.2784 74.6119 76.7879 73.398 77.7071 72.4726L77.6971 72.4826Z" fill="#FFA426"/>
</g>
<defs>
<clipPath id="clip0_4211_3279">
<rect width="87" height="84" fill="white" transform="translate(31 33)"/>
</clipPath>
</defs>
</svg>
