<svg width="184" height="44" viewBox="0 0 184 44" fill="none" xmlns="http://www.w3.org/2000/svg">
<rect x="15" width="31" height="31" fill="#99B901"/>
<rect x="1.5" y="14.5" width="28" height="28" fill="#F7F6F4" stroke="#99B901" stroke-width="3"/>
<path d="M177.243 29.148C175.936 29.148 174.766 28.8384 173.734 28.2193C172.716 27.6002 171.918 26.7265 171.34 25.5983C170.763 24.4564 170.474 23.1218 170.474 21.5946C170.474 20.0537 170.763 18.7191 171.34 17.5909C171.918 16.449 172.716 15.5685 173.734 14.9493C174.766 14.3164 175.936 14 177.243 14C178.55 14 179.706 14.3164 180.71 14.9493C181.728 15.5685 182.526 16.449 183.104 17.5909C183.695 18.7191 183.991 20.0537 183.991 21.5946C183.991 23.1218 183.695 24.4564 183.104 25.5983C182.526 26.7265 181.728 27.6002 180.71 28.2193C179.706 28.8384 178.55 29.148 177.243 29.148ZM177.243 26.8366C178.11 26.8366 178.859 26.6233 179.492 26.1968C180.125 25.7566 180.614 25.1443 180.958 24.3601C181.315 23.5621 181.494 22.6403 181.494 21.5946C181.494 20.5352 181.315 19.6134 180.958 18.8292C180.614 18.0312 180.125 17.419 179.492 16.9925C178.859 16.5522 178.11 16.332 177.243 16.332C176.39 16.332 175.64 16.5522 174.993 16.9925C174.347 17.419 173.844 18.0312 173.487 18.8292C173.143 19.6134 172.971 20.5352 172.971 21.5946C172.971 22.6403 173.143 23.5621 173.487 24.3601C173.844 25.1443 174.347 25.7566 174.993 26.1968C175.64 26.6233 176.39 26.8366 177.243 26.8366Z" fill="#99B901"/>
<path d="M162.384 29.148C161.077 29.148 159.914 28.8384 158.896 28.2193C157.892 27.6002 157.101 26.7265 156.523 25.5983C155.959 24.4564 155.677 23.1218 155.677 21.5946C155.677 20.0537 155.959 18.7191 156.523 17.5909C157.101 16.449 157.892 15.5685 158.896 14.9493C159.914 14.3164 161.077 14 162.384 14C163.196 14 163.966 14.1169 164.695 14.3508C165.425 14.571 166.071 14.8805 166.635 15.2795C166.966 15.4997 167.138 15.7611 167.151 16.0638C167.179 16.3527 167.076 16.6485 166.842 16.9512C166.594 17.2539 166.333 17.4121 166.057 17.4258C165.782 17.4396 165.48 17.3433 165.149 17.1369C164.764 16.8893 164.338 16.6966 163.87 16.5591C163.402 16.4077 162.907 16.332 162.384 16.332C161.517 16.332 160.767 16.5522 160.134 16.9925C159.515 17.4327 159.034 18.0519 158.69 18.8498C158.346 19.6341 158.174 20.549 158.174 21.5946C158.174 22.6265 158.346 23.5415 158.69 24.3394C159.034 25.1237 159.515 25.7359 160.134 26.1762C160.767 26.6165 161.517 26.8366 162.384 26.8366C163.031 26.8366 163.567 26.7747 163.994 26.6509C164.434 26.5133 164.819 26.3482 165.149 26.1555V23.0599H163.994C163.182 23.0599 162.776 22.6884 162.776 21.9455C162.776 21.2025 163.182 20.831 163.994 20.831H166.346C167.158 20.831 167.564 21.2438 167.564 22.0693V26.754C167.564 27.098 167.509 27.3869 167.399 27.6208C167.303 27.841 167.117 28.0129 166.842 28.1368C166.25 28.4394 165.569 28.6802 164.799 28.8591C164.042 29.0517 163.237 29.148 162.384 29.148Z" fill="#99B901"/>
<path d="M146.822 29.148C145.515 29.148 144.346 28.8384 143.314 28.2193C142.296 27.6002 141.498 26.7265 140.92 25.5983C140.342 24.4564 140.053 23.1218 140.053 21.5946C140.053 20.0537 140.342 18.7191 140.92 17.5909C141.498 16.449 142.296 15.5685 143.314 14.9493C144.346 14.3164 145.515 14 146.822 14C148.129 14 149.285 14.3164 150.289 14.9493C151.308 15.5685 152.106 16.449 152.683 17.5909C153.275 18.7191 153.571 20.0537 153.571 21.5946C153.571 23.1218 153.275 24.4564 152.683 25.5983C152.106 26.7265 151.308 27.6002 150.289 28.2193C149.285 28.8384 148.129 29.148 146.822 29.148ZM146.822 26.8366C147.689 26.8366 148.439 26.6233 149.072 26.1968C149.705 25.7566 150.193 25.1443 150.537 24.3601C150.895 23.5621 151.074 22.6403 151.074 21.5946C151.074 20.5352 150.895 19.6134 150.537 18.8292C150.193 18.0312 149.705 17.419 149.072 16.9925C148.439 16.5522 147.689 16.332 146.822 16.332C145.969 16.332 145.22 16.5522 144.573 16.9925C143.926 17.419 143.424 18.0312 143.066 18.8292C142.722 19.6134 142.55 20.5352 142.55 21.5946C142.55 22.6403 142.722 23.5621 143.066 24.3601C143.424 25.1443 143.926 25.7566 144.573 26.1968C145.22 26.6233 145.969 26.8366 146.822 26.8366Z" fill="#99B901"/>
<path d="M127.699 28.8178C126.915 28.8178 126.523 28.4119 126.523 27.6002V15.5891C126.523 14.7773 126.929 14.3715 127.74 14.3715H133.127C134.475 14.3715 135.541 14.6879 136.326 15.3208C137.124 15.9537 137.523 17.02 137.523 18.5196C137.523 19.7854 137.234 20.7485 136.656 21.4089C136.078 22.0555 135.28 22.4545 134.262 22.6059L136.635 27.3732C136.842 27.7997 136.883 28.1505 136.759 28.4257C136.635 28.6871 136.374 28.8178 135.975 28.8178H135.583C134.895 28.8178 134.42 28.5082 134.159 27.8891L131.785 22.7091H128.896V27.6002C128.896 28.4119 128.497 28.8178 127.699 28.8178ZM128.896 20.4802H132.797C133.498 20.4802 134.042 20.3288 134.427 20.0262C134.812 19.7235 135.005 19.2213 135.005 18.5196C135.005 17.8317 134.812 17.3364 134.427 17.0337C134.042 16.731 133.498 16.5797 132.797 16.5797H128.896V20.4802Z" fill="#99B901"/>
<path d="M109.727 29.148C108.42 29.148 107.251 28.8384 106.219 28.2193C105.201 27.6002 104.403 26.7265 103.825 25.5983C103.247 24.4564 102.958 23.1218 102.958 21.5946C102.958 20.0537 103.247 18.7191 103.825 17.5909C104.403 16.449 105.201 15.5685 106.219 14.9493C107.251 14.3164 108.42 14 109.727 14C111.034 14 112.19 14.3164 113.195 14.9493C114.213 15.5685 115.011 16.449 115.588 17.5909C116.18 18.7191 116.476 20.0537 116.476 21.5946C116.476 23.1218 116.18 24.4564 115.588 25.5983C115.011 26.7265 114.213 27.6002 113.195 28.2193C112.19 28.8384 111.034 29.148 109.727 29.148ZM109.727 26.8366C110.594 26.8366 111.344 26.6233 111.977 26.1968C112.61 25.7566 113.098 25.1443 113.442 24.3601C113.8 23.5621 113.979 22.6403 113.979 21.5946C113.979 20.5352 113.8 19.6134 113.442 18.8292C113.098 18.0312 112.61 17.419 111.977 16.9925C111.344 16.5522 110.594 16.332 109.727 16.332C108.874 16.332 108.125 16.5522 107.478 16.9925C106.831 17.419 106.329 18.0312 105.971 18.8292C105.627 19.6134 105.455 20.5352 105.455 21.5946C105.455 22.6403 105.627 23.5621 105.971 24.3601C106.329 25.1443 106.831 25.7566 107.478 26.1968C108.125 26.6233 108.874 26.8366 109.727 26.8366Z" fill="#99B901"/>
<path d="M95.7727 28.8178C94.9609 28.8178 94.5551 28.4119 94.5551 27.6002V22.6884L90.5514 15.8367C90.2624 15.3552 90.2074 14.9906 90.3863 14.7429C90.5651 14.4953 90.9366 14.3715 91.5007 14.3715C92.1473 14.3715 92.6289 14.6535 92.9453 15.2176L95.7727 20.0881L98.5588 15.2176C98.889 14.6535 99.3774 14.3715 100.024 14.3715C100.588 14.3715 100.946 14.5159 101.097 14.8049C101.262 15.08 101.221 15.424 100.973 15.8367L96.9697 22.6884V27.6002C96.9697 28.4119 96.5707 28.8178 95.7727 28.8178Z" fill="#99B901"/>
<path d="M81.9455 29.148C80.6385 29.148 79.4759 28.8384 78.4577 28.2193C77.4534 27.6002 76.6623 26.7265 76.0844 25.5983C75.5203 24.4564 75.2383 23.1218 75.2383 21.5946C75.2383 20.0537 75.5203 18.7191 76.0844 17.5909C76.6623 16.449 77.4534 15.5685 78.4577 14.9493C79.4759 14.3164 80.6385 14 81.9455 14C82.7572 14 83.5277 14.1169 84.2569 14.3508C84.9861 14.571 85.6328 14.8805 86.1968 15.2795C86.527 15.4997 86.699 15.7611 86.7128 16.0638C86.7403 16.3527 86.6371 16.6485 86.4032 16.9512C86.1556 17.2539 85.8942 17.4121 85.619 17.4258C85.3438 17.4396 85.0411 17.3433 84.7109 17.1369C84.3257 16.8893 83.8992 16.6966 83.4314 16.5591C82.9636 16.4077 82.4683 16.332 81.9455 16.332C81.0787 16.332 80.3289 16.5522 79.696 16.9925C79.0769 17.4327 78.5953 18.0519 78.2514 18.8498C77.9074 19.6341 77.7354 20.549 77.7354 21.5946C77.7354 22.6265 77.9074 23.5415 78.2514 24.3394C78.5953 25.1237 79.0769 25.7359 79.696 26.1762C80.3289 26.6165 81.0787 26.8366 81.9455 26.8366C82.5921 26.8366 83.1287 26.7747 83.5552 26.6509C83.9955 26.5133 84.3807 26.3482 84.7109 26.1555V23.0599H83.5552C82.7435 23.0599 82.3376 22.6884 82.3376 21.9455C82.3376 21.2025 82.7435 20.831 83.5552 20.831H85.9079C86.7197 20.831 87.1255 21.2438 87.1255 22.0693V26.754C87.1255 27.098 87.0705 27.3869 86.9604 27.6208C86.8641 27.841 86.6784 28.0129 86.4032 28.1368C85.8116 28.4394 85.1306 28.6802 84.3601 28.8591C83.6034 29.0517 82.7985 29.148 81.9455 29.148Z" fill="#99B901"/>
<path d="M70.8045 28.8178C70.0203 28.8178 69.6282 28.4119 69.6282 27.6002V15.5891C69.6282 14.7773 70.0203 14.3715 70.8045 14.3715C71.6025 14.3715 72.0015 14.7773 72.0015 15.5891V27.6002C72.0015 28.4119 71.6025 28.8178 70.8045 28.8178Z" fill="#99B901"/>
<path d="M57.1763 28.8178C56.3921 28.8178 56 28.4119 56 27.6002V15.5891C56 14.7773 56.3921 14.3715 57.1763 14.3715C57.9743 14.3715 58.3733 14.7773 58.3733 15.5891V20.6453L63.0168 15.3002C63.3195 14.9287 63.5946 14.681 63.8423 14.5572C64.0899 14.4334 64.4064 14.3715 64.7916 14.3715C65.1356 14.3715 65.3901 14.454 65.5552 14.6191C65.7203 14.7842 65.796 14.9837 65.7822 15.2176C65.7822 15.4515 65.6997 15.6716 65.5346 15.878L60.9117 21.0993L65.8235 27.3525C65.9886 27.5726 66.078 27.8065 66.0918 28.0542C66.1055 28.3018 66.023 28.5082 65.8441 28.6733C65.679 28.8384 65.397 28.921 64.998 28.921C64.5852 28.921 64.2482 28.8453 63.9868 28.694C63.7391 28.5289 63.519 28.3156 63.3263 28.0542L58.3733 21.4295V27.6002C58.3733 28.4119 57.9743 28.8178 57.1763 28.8178Z" fill="#99B901"/>
</svg>
