<svg width="266" height="58" viewBox="0 0 266 58" fill="none" xmlns="http://www.w3.org/2000/svg">
<path fill-rule="evenodd" clip-rule="evenodd" d="M3.42015 27.3599C4.04976 27.3599 4.56015 27.8703 4.56015 28.4999C4.56015 42.372 15.5635 53.5799 29.0727 53.5799C42.5817 53.5799 53.5802 42.3774 53.5802 28.4999C53.5802 27.8703 54.0905 27.3599 54.7202 27.3599C55.3498 27.3599 55.8602 27.8703 55.8602 28.4999C55.8602 43.5892 43.8878 55.8599 29.0727 55.8599C14.2577 55.8599 2.28015 43.5841 2.28015 28.4999C2.28015 27.8703 2.79055 27.3599 3.42015 27.3599Z" fill="black"/>
<g clip-path="url(#clip0_4211_3418)">
<path d="M48.0913 29.5254H35.2902C32.8929 29.5254 32.3166 30.9279 34.0147 32.6498L36.3659 35.0339L46.1473 44.9525C50.1582 40.636 52.2789 35.4547 52.4479 29.5254H48.0989H48.0913Z" fill="#99B901"/>
<path d="M24.1409 24.8427L15.0894 15.6644C15.0894 15.6644 15.051 15.6255 15.028 15.6099L12.0006 12.54C7.9897 16.8565 5.86899 22.0378 5.69995 27.9671H22.8654C25.2627 27.9671 25.839 26.5646 24.1409 24.8427Z" fill="#FFA426"/>
<path d="M22.8654 29.5254H5.69995C5.86899 35.4547 7.9897 40.636 12.0006 44.9525L15.028 41.8826C15.028 41.8826 15.0664 41.8437 15.0894 41.8281L24.1409 32.6498C25.8313 30.9356 25.2627 29.5254 22.8654 29.5254Z" fill="#105F00"/>
<path d="M28.3059 35.0417C28.3059 32.6108 26.9228 32.0264 25.2247 33.7484L22.6814 36.3273L13.0922 46.0511C17.3489 50.1182 22.4586 52.2686 28.3059 52.44V48.1392C28.3059 48.1002 28.3059 48.0612 28.3059 48.0223V35.0417Z" fill="#E10048"/>
<path d="M42.0362 42.989C42.0362 42.989 41.9978 42.9501 41.9824 42.9267L32.931 33.7484C31.2406 32.0343 29.8499 32.6108 29.8499 35.0418V38.5947V52.4401C35.6972 52.2687 40.8068 50.1182 45.0636 46.0511L42.0439 42.989H42.0362Z" fill="#E28301"/>
</g>
<path d="M45.4928 23.9888C42.9508 25.6162 33.0596 27.9956 33.0596 27.9956C33.0596 27.9956 39.4014 19.9874 41.9435 18.36C44.4856 16.7326 47.3421 16.6735 48.3174 18.2311C49.2926 19.7887 48.0296 22.3668 45.4875 23.9942L45.4928 23.9888Z" fill="#FFA426"/>
<path d="M26.1376 11.9683C27.2674 14.7828 27.8163 25.0146 27.8163 25.0146C27.8163 25.0146 21.1387 17.291 20.0036 14.4766C18.8684 11.6622 19.3267 8.82629 21.0215 8.13343C22.7162 7.44056 25.0024 9.1593 26.1376 11.9737V11.9683Z" fill="#E10048"/>
<path d="M38.918 14.5354C37.6976 17.3122 30.7802 24.8209 30.7802 24.8209C30.7802 24.8209 31.6435 14.6106 32.8639 11.8338C34.0843 9.05695 36.4239 7.41342 38.0973 8.15999C39.7707 8.90656 40.1331 11.7586 38.918 14.5354Z" fill="#99B901"/>
<path d="M52.393 21.601C53.6263 21.601 54.626 20.5935 54.626 19.3506C54.626 18.1077 53.6263 17.1001 52.393 17.1001C51.1598 17.1001 50.16 18.1077 50.16 19.3506C50.16 20.5935 51.1598 21.601 52.393 21.601Z" fill="#E28301"/>
<path d="M29.5928 9.0605C30.8261 9.0605 31.8258 8.05293 31.8258 6.81003C31.8258 5.56714 30.8261 4.55957 29.5928 4.55957C28.3596 4.55957 27.3599 5.56714 27.3599 6.81003C27.3599 8.05293 28.3596 9.0605 29.5928 9.0605Z" fill="#99B901"/>
<path d="M48.2639 28.1518C49.1057 28.1518 49.7881 27.4641 49.7881 26.6157C49.7881 25.7673 49.1057 25.0796 48.2639 25.0796C47.4221 25.0796 46.7397 25.7673 46.7397 26.6157C46.7397 27.4641 47.4221 28.1518 48.2639 28.1518Z" fill="#E10048"/>
<path d="M51.7914 12.3759C52.6332 12.3759 53.3156 11.6882 53.3156 10.8398C53.3156 9.99145 52.6332 9.30371 51.7914 9.30371C50.9496 9.30371 50.2672 9.99145 50.2672 10.8398C50.2672 11.6882 50.9496 12.3759 51.7914 12.3759Z" fill="#E10048"/>
<path d="M41.6981 6.05417C42.5399 6.05417 43.2223 5.36642 43.2223 4.51805C43.2223 3.66968 42.5399 2.98193 41.6981 2.98193C40.8563 2.98193 40.174 3.66968 40.174 4.51805C40.174 5.36642 40.8563 6.05417 41.6981 6.05417Z" fill="#FFA426"/>
<path d="M19.7639 33.8525C20.6057 33.8525 21.2881 33.1648 21.2881 32.3164C21.2881 31.468 20.6057 30.7803 19.7639 30.7803C18.9221 30.7803 18.2397 31.468 18.2397 32.3164C18.2397 33.1648 18.9221 33.8525 19.7639 33.8525Z" fill="white"/>
<path d="M24.969 38.5532C25.537 38.5532 25.9975 38.0891 25.9975 37.5166C25.9975 36.9441 25.537 36.48 24.969 36.48C24.4009 36.48 23.9404 36.9441 23.9404 37.5166C23.9404 38.0891 24.4009 38.5532 24.969 38.5532Z" fill="white"/>
<path d="M16.9886 36.2729C17.5567 36.2729 18.0172 35.8088 18.0172 35.2363C18.0172 34.6638 17.5567 34.1997 16.9886 34.1997C16.4206 34.1997 15.9601 34.6638 15.9601 35.2363C15.9601 35.8088 16.4206 36.2729 16.9886 36.2729Z" fill="white"/>
<path d="M21.5486 26.0137C22.1166 26.0137 22.5771 25.5495 22.5771 24.977C22.5771 24.4045 22.1166 23.9404 21.5486 23.9404C20.9805 23.9404 20.52 24.4045 20.52 24.977C20.52 25.5495 20.9805 26.0137 21.5486 26.0137Z" fill="white"/>
<path d="M31.8087 43.1133C32.3768 43.1133 32.8373 42.6492 32.8373 42.0766C32.8373 41.5041 32.3768 41.04 31.8087 41.04C31.2407 41.04 30.7802 41.5041 30.7802 42.0766C30.7802 42.6492 31.2407 43.1133 31.8087 43.1133Z" fill="white"/>
<path d="M36.3685 32.8535C36.9366 32.8535 37.3971 32.3894 37.3971 31.8169C37.3971 31.2444 36.9366 30.7803 36.3685 30.7803C35.8005 30.7803 35.34 31.2444 35.34 31.8169C35.34 32.3894 35.8005 32.8535 36.3685 32.8535Z" fill="white"/>
<path d="M25.4646 42.9721C26.3064 42.9721 26.9888 42.2844 26.9888 41.436C26.9888 40.5876 26.3064 39.8999 25.4646 39.8999C24.6228 39.8999 23.9404 40.5876 23.9404 41.436C23.9404 42.2844 24.6228 42.9721 25.4646 42.9721Z" fill="white"/>
<path d="M33.4445 39.5522C34.2863 39.5522 34.9687 38.8645 34.9687 38.0161C34.9687 37.1677 34.2863 36.48 33.4445 36.48C32.6027 36.48 31.9203 37.1677 31.9203 38.0161C31.9203 38.8645 32.6027 39.5522 33.4445 39.5522Z" fill="white"/>
<path d="M40.2844 34.9926C41.1262 34.9926 41.8086 34.3049 41.8086 33.4565C41.8086 32.6082 41.1262 31.9204 40.2844 31.9204C39.4427 31.9204 38.7603 32.6082 38.7603 33.4565C38.7603 34.3049 39.4427 34.9926 40.2844 34.9926Z" fill="white"/>
<path d="M17.4843 25.8725C18.326 25.8725 19.0084 25.1848 19.0084 24.3364C19.0084 23.488 18.326 22.8003 17.4843 22.8003C16.6425 22.8003 15.9601 23.488 15.9601 24.3364C15.9601 25.1848 16.6425 25.8725 17.4843 25.8725Z" fill="white"/>
<path d="M23.7383 4.21237C24.5801 4.21237 25.2625 3.52463 25.2625 2.67625C25.2625 1.82788 24.5801 1.14014 23.7383 1.14014C22.8965 1.14014 22.2141 1.82788 22.2141 2.67625C22.2141 3.52463 22.8965 4.21237 23.7383 4.21237Z" fill="#E28301"/>
<path d="M44.3361 13.7729C45.5694 13.7729 46.5691 12.7653 46.5691 11.5224C46.5691 10.2795 45.5694 9.27197 44.3361 9.27197C43.1029 9.27197 42.1031 10.2795 42.1031 11.5224C42.1031 12.7653 43.1029 13.7729 44.3361 13.7729Z" fill="#105F00"/>
<path d="M257.272 43.7001C253.634 43.7001 250.76 42.7038 248.652 40.7111C246.572 38.7183 245.533 36.0469 245.533 32.6969C245.533 29.3468 246.471 26.6609 248.349 24.6393C250.255 22.6177 252.839 21.6069 256.103 21.6069C259.395 21.6069 261.807 22.7044 263.337 24.8993C264.897 27.0653 265.677 29.6356 265.677 32.6102V34.343H251.511C251.771 35.7293 252.406 36.8411 253.417 37.6787C254.428 38.4873 255.756 38.8916 257.402 38.8916C258.355 38.8916 259.207 38.7761 259.958 38.5451C260.738 38.2851 261.633 37.9241 262.644 37.4621L264.29 41.5341C263.308 42.285 262.11 42.8337 260.695 43.1803C259.308 43.5269 258.168 43.7001 257.272 43.7001ZM260.348 30.5742C260.059 29.1591 259.54 28.1194 258.789 27.4551C258.038 26.762 257.099 26.4155 255.973 26.4155C254.818 26.4155 253.85 26.7765 253.07 27.4985C252.291 28.1916 251.785 29.2168 251.554 30.5742H260.348Z" fill="black"/>
<path d="M232.103 43.1796L224.046 22.9492L229.851 22.1694L234.703 34.9055L239.295 22.1694H245.229L236.955 43.1796H232.103Z" fill="black"/>
<path d="M212.356 43.7001C209.035 43.7001 206.436 42.7038 204.559 40.7111C202.71 38.6895 201.786 35.9892 201.786 32.6102C201.786 29.2601 202.754 26.5887 204.689 24.596C206.652 22.6033 209.324 21.6069 212.703 21.6069C216.197 21.6069 218.898 22.6466 220.804 24.726C222.739 26.7765 223.706 29.4767 223.706 32.8268C223.706 36.1769 222.666 38.8339 220.587 40.7977C218.508 42.7327 215.764 43.7001 212.356 43.7001ZM217.901 32.8268C217.901 30.8341 217.454 29.2746 216.558 28.1483C215.692 26.9931 214.45 26.4155 212.833 26.4155C211.187 26.4155 209.901 26.9209 208.977 27.9317C208.053 28.9425 207.591 30.4875 207.591 32.5669C207.591 34.6463 207.981 36.2202 208.761 37.2888C209.569 38.3573 210.797 38.8916 212.443 38.8916C214.06 38.8916 215.374 38.4151 216.385 37.4621C217.396 36.4801 217.901 34.9351 217.901 32.8268Z" fill="black"/>
<path d="M200.383 22.1694L201.509 26.6747C200.556 26.6747 199.444 26.9491 198.173 27.4978C196.931 28.0465 195.704 28.8552 194.491 29.9237V43.1796H188.859V22.1694H191.805L193.668 25.2452C194.534 24.4943 195.589 23.8012 196.83 23.1658C198.072 22.5016 199.256 22.1694 200.383 22.1694Z" fill="black"/>
<path d="M175.136 26.1552C173.172 26.1552 171.801 26.8483 171.021 28.2346C170.27 29.6208 169.894 31.0504 169.894 32.5232C169.894 34.1694 170.241 35.6423 170.934 36.9419C171.627 38.2415 173.028 38.8913 175.136 38.8913C175.8 38.8913 176.494 38.7469 177.216 38.4581C177.966 38.1404 178.66 37.7794 179.295 37.3751V27.6714C178.66 27.2382 177.966 26.8772 177.216 26.5884C176.494 26.2996 175.8 26.1552 175.136 26.1552ZM184.97 22.1698V43.1366C184.97 45.6781 184.103 47.8008 182.371 49.5047C180.667 51.2375 177.952 52.1039 174.226 52.1039C173.331 52.1039 172.032 51.8873 170.328 51.4541C168.624 51.0498 167.209 50.4722 166.082 49.7213L167.772 45.7358C169.071 46.3712 170.183 46.8333 171.107 47.1221C172.032 47.4109 173.028 47.5553 174.097 47.5553C175.772 47.5553 177.057 47.151 177.952 46.3423C178.847 45.5626 179.295 44.4796 179.295 43.0933V42.0103C178.4 42.5302 177.447 42.9345 176.436 43.2233C175.425 43.541 174.486 43.6998 173.62 43.6998C170.559 43.6998 168.205 42.6312 166.559 40.4941C164.913 38.357 164.09 35.7 164.09 32.5232C164.09 29.3464 164.956 26.6895 166.689 24.5524C168.45 22.4152 170.848 21.3467 173.88 21.3467C174.92 21.3467 176.089 21.5777 177.389 22.0398C178.688 22.473 179.8 23.0939 180.724 23.9026L182.024 22.1698H184.97Z" fill="black"/>
<path d="M138.735 23.5557C139.659 22.8337 140.713 22.2849 141.897 21.9095C143.11 21.5341 144.193 21.3463 145.146 21.3463C148.005 21.3463 150.027 22.1839 151.211 23.8589C152.424 25.5339 153.03 27.5844 153.03 30.0103V43.1796H147.399V30.2703C147.399 28.9418 147.081 27.931 146.446 27.2379C145.81 26.5159 144.872 26.1549 143.63 26.1549C142.821 26.1549 141.984 26.3715 141.117 26.8047C140.251 27.209 139.457 27.6855 138.735 28.2342V43.1796H133.146V13.0722L138.735 12.5957V23.5557Z" fill="black"/>
<path d="M128.224 27.845C127.213 27.3829 126.274 27.0364 125.408 26.8053C124.542 26.5454 123.617 26.4155 122.636 26.4155C121.914 26.4155 121.35 26.5599 120.946 26.8487C120.571 27.1086 120.383 27.484 120.383 27.975C120.383 28.3215 120.614 28.6537 121.076 28.9713C121.567 29.289 122.347 29.6356 123.415 30.011C125.177 30.6464 126.809 31.5417 128.31 32.6969C129.812 33.8232 130.563 35.2961 130.563 37.1155C130.563 39.1949 129.812 40.8121 128.31 41.9673C126.838 43.1225 124.672 43.7001 121.812 43.7001C120.917 43.7001 119.719 43.5269 118.217 43.1803C116.744 42.8337 115.517 42.285 114.535 41.5341L116.224 37.4621C117.235 37.9241 118.202 38.2851 119.127 38.5451C120.08 38.7761 120.946 38.8916 121.726 38.8916C122.765 38.8916 123.56 38.7472 124.108 38.4584C124.657 38.1696 124.931 37.7942 124.931 37.3321C124.931 36.7545 124.657 36.2347 124.108 35.7726C123.56 35.3105 122.693 34.8917 121.509 34.5163C119.834 33.9676 118.246 33.1878 116.744 32.177C115.271 31.1373 114.535 29.7511 114.535 28.0183C114.535 26.0256 115.271 24.466 116.744 23.3397C118.217 22.1845 120.21 21.6069 122.722 21.6069C123.617 21.6069 124.773 21.7947 126.188 22.1701C127.603 22.5455 128.845 23.0943 129.913 23.8163L128.224 27.845Z" fill="black"/>
<path d="M104.878 43.7001C101.239 43.7001 98.3652 42.7038 96.257 40.7111C94.1776 38.7183 93.1379 36.0469 93.1379 32.6969C93.1379 29.3468 94.0765 26.6609 95.9537 24.6393C97.8598 22.6177 100.445 21.6069 103.708 21.6069C107 21.6069 109.412 22.7044 110.942 24.8993C112.502 27.0653 113.282 29.6356 113.282 32.6102V34.343H99.1161C99.376 35.7293 100.011 36.8411 101.022 37.6787C102.033 38.4873 103.361 38.8916 105.008 38.8916C105.961 38.8916 106.813 38.7761 107.563 38.5451C108.343 38.2851 109.239 37.9241 110.249 37.4621L111.895 41.5341C110.914 42.285 109.715 42.8337 108.3 43.1803C106.914 43.5269 105.773 43.7001 104.878 43.7001ZM107.953 30.5742C107.665 29.1591 107.145 28.1194 106.394 27.4551C105.643 26.762 104.704 26.4155 103.578 26.4155C102.423 26.4155 101.455 26.7765 100.676 27.4985C99.8959 28.1916 99.3905 29.2168 99.1594 30.5742H107.953Z" fill="black"/>
<path d="M91.7342 22.1694L92.8605 26.6747C91.9075 26.6747 90.7956 26.9491 89.5249 27.4978C88.283 28.0465 87.0556 28.8552 85.8427 29.9237V43.1796H80.2111V22.1694H83.1568L85.0196 25.2452C85.886 24.4943 86.9401 23.8012 88.1819 23.1658C89.4238 22.5016 90.6079 22.1694 91.7342 22.1694Z" fill="black"/>
<path d="M66.6489 20.6105C66.6489 18.1845 67.3565 16.2784 68.7716 14.8922C70.2156 13.4771 72.2372 12.7695 74.8364 12.7695C75.5006 12.7695 76.2515 12.8995 77.089 13.1594C77.9265 13.4193 78.5763 13.737 79.0384 14.1125L77.4356 18.1845C77.0024 18.0112 76.5836 17.8813 76.1793 17.7947C75.8039 17.6791 75.4429 17.6214 75.0963 17.6214C74.1144 17.6214 73.3924 17.9824 72.9303 18.7044C72.4971 19.3975 72.2805 20.2928 72.2805 21.3902V22.6032H76.2659L78.0421 26.9785H72.2805V43.1802H66.6489V26.9785H63.3999V22.6032H66.6489V20.6105Z" fill="black"/>
<defs>
<clipPath id="clip0_4211_3418">
<rect width="46.74" height="39.9" fill="white" transform="translate(5.69995 12.54)"/>
</clipPath>
</defs>
</svg>
