<svg width="2250" height="1358" viewBox="0 0 2250 1358" fill="none" xmlns="http://www.w3.org/2000/svg">
<g clip-path="url(#clip0_4211_987)">
<path d="M1453.43 952.205C1529.03 911.349 2247.51 383.221 2247.51 383.221C2247.51 383.221 1412.05 694.906 1336.45 735.762C1260.86 776.617 1225.76 858.19 1258.06 917.959C1290.36 977.728 1377.83 993.06 1453.43 952.205Z" fill="#F8F7F5"/>
<path d="M796.572 571.205C720.975 530.349 2.48683 2.22145 2.48683 2.22145C2.48683 2.22145 837.949 313.906 913.546 354.762C989.143 395.617 1024.24 477.19 991.94 536.959C959.638 596.728 872.169 612.06 796.572 571.205Z" fill="#F8F7F5"/>
<path d="M796.572 1333.2C720.975 1292.35 2.48683 764.221 2.48683 764.221C2.48683 764.221 837.949 1075.91 913.546 1116.76C989.143 1157.62 1024.24 1239.19 991.94 1298.96C959.638 1358.73 872.169 1374.06 796.572 1333.2Z" fill="#F8F7F5"/>
</g>
<defs>
<clipPath id="clip0_4211_987">
<rect width="2250" height="1358" fill="white"/>
</clipPath>
</defs>
</svg>
