<svg width="1440" height="760" viewBox="0 0 1440 760" fill="none" xmlns="http://www.w3.org/2000/svg">
<g clip-path="url(#clip0_4211_2343)">
<circle cx="480.5" cy="763.5" r="17.5" fill="#FFA426"/>
<path d="M874.234 226.006C851.93 233.331 612.21 276.684 612.21 276.684C612.21 276.684 830.958 169.473 853.262 162.148C875.566 154.824 898.341 163.181 904.132 180.815C909.923 198.449 896.537 218.682 874.234 226.006Z" fill="#E10048"/>
<path d="M1263.37 712.164C1222.99 701.651 823.049 535.802 823.049 535.802C823.049 535.802 1253.09 586.047 1293.47 596.559C1333.84 607.072 1359.84 641.473 1351.53 673.396C1343.21 705.32 1303.74 722.676 1263.37 712.164Z" fill="#E10048"/>
<path d="M1386.07 279.357C1344.81 285.557 911.875 290.208 911.875 290.208C911.875 290.208 1327.06 167.425 1368.33 161.225C1409.59 155.026 1447.01 176.445 1451.91 209.066C1456.81 241.687 1427.34 273.158 1386.07 279.357Z" fill="#FFA426"/>
<circle cx="228.5" cy="119.5" r="17.5" fill="#FDD401"/>
<circle cx="61.5" cy="449.5" r="17.5" fill="#FDD401"/>
<circle cx="8.5" cy="605.5" r="17.5" fill="#E10048"/>
<circle cx="697.5" cy="359.5" r="17.5" fill="#FFA426"/>
<circle cx="616.5" cy="114.5" r="17.5" fill="#E10048"/>
<circle cx="564.5" cy="315.5" r="17.5" fill="#FFA426"/>
<path d="M141.686 157.542C147.421 165.016 195.662 250.047 195.662 250.047C195.662 250.047 126.021 181.436 120.286 173.961C114.551 166.487 114.692 156.752 120.602 152.218C126.512 147.683 135.951 150.067 141.686 157.542Z" fill="#E10048"/>
<path d="M514.73 550.913C507.042 545.468 435.819 478.499 435.819 478.499C435.819 478.499 522.631 523.456 530.32 528.901C538.008 534.346 540.75 543.687 536.445 549.766C532.14 555.844 522.418 556.358 514.73 550.913Z" fill="#FDD401"/>
<path d="M794.925 648.601C773.666 638.644 569.421 505.87 569.421 505.87C569.421 505.87 802.175 577.776 823.434 587.733C844.694 597.691 855.546 619.388 847.673 636.197C839.801 653.005 816.185 658.558 794.925 648.601Z" fill="#FFA426"/>
<path d="M744.304 893.801C727.573 877.333 579.196 684.125 579.196 684.125C579.196 684.125 774.724 829.432 791.454 845.9C808.184 862.369 811.192 886.442 798.172 899.669C785.152 912.897 761.034 910.27 744.304 893.801Z" fill="#E10048"/>
<path d="M368.439 114.052C366.577 123.288 334.221 215.541 334.221 215.541C334.221 215.541 340.135 117.957 341.997 108.722C343.859 99.4867 351.287 93.1933 358.589 94.6653C365.891 96.1373 370.3 104.817 368.439 114.052Z" fill="#FFA426"/>
<path d="M734.76 146.889C727.007 152.242 639.663 196.157 639.663 196.157C639.663 196.157 711.682 130.044 719.435 124.692C727.188 119.339 736.903 119.969 741.135 126.099C745.367 132.228 742.513 141.536 734.76 146.889Z" fill="#FFA426"/>
<path d="M10.0173 351.269C19.4122 351.97 114.969 372.62 114.969 372.62C114.969 372.62 17.4061 378.868 8.01111 378.168C-1.38387 377.467 -8.55091 370.877 -7.99693 363.45C-7.44295 356.022 0.62228 350.568 10.0173 351.269Z" fill="#FDD401"/>
<path d="M77 507.199C85.2526 502.655 176.577 467.763 176.577 467.763C176.577 467.763 98.2636 526.283 90.011 530.827C81.7583 535.372 72.1557 533.766 68.5628 527.242C64.9699 520.717 68.7474 511.744 77 507.199Z" fill="#FFA426"/>
<path d="M44.2671 789.799C54.1751 771.999 181.489 603.245 181.489 603.245C181.489 603.245 105.137 800.367 95.2286 818.166C85.3206 835.966 65.8805 844.045 51.8079 836.211C37.7352 828.378 34.3592 807.598 44.2671 789.799Z" fill="#FDD401"/>
<path d="M515.202 201.135C508.541 207.797 430.536 266.728 430.536 266.728C430.536 266.728 489.468 188.724 496.129 182.062C502.791 175.4 512.461 174.27 517.728 179.537C522.995 184.803 521.864 194.474 515.202 201.135Z" fill="#FDD401"/>
<path d="M617.269 400.674C607.848 400.681 511.01 387.265 511.01 387.265C511.01 387.265 607.828 373.708 617.249 373.701C626.67 373.694 634.312 379.727 634.317 387.175C634.323 394.624 626.69 400.668 617.269 400.674Z" fill="#E10048"/>
<circle cx="52.5" cy="240.5" r="17.5" fill="#FFA426"/>
<path d="M1688.18 560.948C1646.49 559.256 1220.44 482.194 1220.44 482.194C1220.44 482.194 1651.33 439.896 1693.02 441.588C1734.71 443.279 1767.42 471.37 1766.08 504.33C1764.75 537.29 1729.87 562.639 1688.18 560.948Z" fill="#FFA426"/>
</g>
<defs>
<clipPath id="clip0_4211_2343">
<rect width="1440" height="760" fill="white"/>
</clipPath>
</defs>
</svg>
