<svg width="688" height="316" viewBox="0 0 688 316" fill="none" xmlns="http://www.w3.org/2000/svg">
<g clip-path="url(#clip0_4211_991)">
<circle cx="190" cy="260" r="7" fill="#FFA426"/>
<path d="M342.163 51.4228C333.535 54.2561 240.809 71.0257 240.809 71.0257C240.809 71.0257 325.423 29.5552 334.051 26.7219C342.678 23.8886 351.488 27.1213 353.728 33.9423C355.968 40.7632 350.79 48.5895 342.163 51.4228Z" fill="#E10048"/>
<path d="M372.483 147.504C363.425 146.859 271.255 127.264 271.255 127.264C271.255 127.264 365.271 120.926 374.329 121.571C383.387 122.216 390.316 128.544 389.806 135.705C389.296 142.867 381.54 148.149 372.483 147.504Z" fill="#FDD401"/>
<path d="M492.683 239.473C477.065 235.406 322.364 171.254 322.364 171.254C322.364 171.254 488.708 190.689 504.326 194.756C519.944 198.822 529.999 212.129 526.784 224.477C523.569 236.825 508.302 243.539 492.683 239.473Z" fill="#E10048"/>
<path d="M540.148 72.0587C524.188 74.4568 356.722 76.2559 356.722 76.2559C356.722 76.2559 517.322 28.762 533.282 26.364C549.242 23.966 563.717 32.2511 565.613 44.8694C567.509 57.4876 556.107 69.6607 540.148 72.0587Z" fill="#FFA426"/>
<circle cx="93" cy="10" r="7" fill="#FDD401"/>
<circle cx="28" cy="138" r="7" fill="#FDD401"/>
<circle cx="8" cy="198" r="7" fill="#E10048"/>
<circle cx="274" cy="103" r="7" fill="#FFA426"/>
<circle cx="243" cy="9" r="7" fill="#E10048"/>
<circle cx="223" cy="86" r="7" fill="#FFA426"/>
<circle cx="113" cy="271" r="7" fill="#FFA426"/>
<path d="M58.8062 24.9385C61.0245 27.8297 79.6848 60.7207 79.6848 60.7207C79.6848 60.7207 52.7466 34.1809 50.5283 31.2897C48.31 28.3985 48.3648 24.6329 50.6506 22.8791C52.9365 21.1252 56.5879 22.0473 58.8062 24.9385Z" fill="#E10048"/>
<path d="M203.104 177.099C200.13 174.993 172.58 149.089 172.58 149.089C172.58 149.089 206.16 166.479 209.134 168.585C212.108 170.691 213.169 174.304 211.503 176.656C209.838 179.007 206.077 179.206 203.104 177.099Z" fill="#FDD401"/>
<path d="M311.484 214.886C303.261 211.034 224.257 159.676 224.257 159.676C224.257 159.676 314.288 187.49 322.512 191.341C330.735 195.193 334.933 203.586 331.888 210.088C328.842 216.589 319.707 218.737 311.484 214.886Z" fill="#FFA426"/>
<path d="M291.904 309.732C285.433 303.362 228.039 228.627 228.039 228.627C228.039 228.627 303.671 284.833 310.143 291.203C316.614 297.573 317.778 306.885 312.741 312.002C307.705 317.118 298.376 316.102 291.904 309.732Z" fill="#E10048"/>
<path d="M146.516 8.11655C145.796 11.6889 133.28 47.3734 133.28 47.3734C133.28 47.3734 135.568 9.62694 136.288 6.05465C137.008 2.48235 139.881 0.0479998 142.706 0.61738C145.53 1.18676 147.236 4.54426 146.516 8.11655Z" fill="#FFA426"/>
<path d="M288.212 20.8183C285.213 22.8888 251.427 39.8756 251.427 39.8756C251.427 39.8756 279.285 14.3028 282.284 12.2323C285.283 10.1618 289.041 10.4055 290.678 12.7764C292.315 15.1474 291.211 18.7479 288.212 20.8183Z" fill="#FFA426"/>
<path d="M7.87463 99.8751C11.5087 100.146 48.4711 108.134 48.4711 108.134C48.4711 108.134 10.7327 110.551 7.09863 110.28C3.46455 110.009 0.692268 107.46 0.906554 104.587C1.12084 101.714 4.24055 99.604 7.87463 99.8751Z" fill="#FDD401"/>
<path d="M33.7843 160.191C36.9765 158.433 72.3017 144.936 72.3017 144.936C72.3017 144.936 42.0093 167.573 38.8171 169.33C35.6249 171.088 31.9105 170.467 30.5207 167.943C29.1309 165.42 30.5921 161.949 33.7843 160.191Z" fill="#FFA426"/>
<path d="M21.1225 269.503C24.955 262.618 74.2011 197.342 74.2011 197.342C74.2011 197.342 44.6674 273.591 40.8349 280.476C37.0024 287.361 29.4827 290.486 24.0393 287.455C18.5959 284.425 17.29 276.388 21.1225 269.503Z" fill="#FDD401"/>
<path d="M203.286 41.8012C200.709 44.3781 170.536 67.1733 170.536 67.1733C170.536 67.1733 193.332 37.0004 195.908 34.4235C198.485 31.8467 202.226 31.4094 204.263 33.4467C206.3 35.484 205.863 39.2244 203.286 41.8012Z" fill="#FDD401"/>
<path d="M242.767 118.985C239.122 118.987 201.665 113.798 201.665 113.798C201.665 113.798 239.115 108.554 242.759 108.551C246.403 108.549 249.359 110.882 249.361 113.763C249.363 116.644 246.411 118.982 242.767 118.985Z" fill="#E10048"/>
<circle cx="25" cy="57" r="7" fill="#FFA426"/>
<path d="M657.005 180.981C640.879 180.327 476.078 150.518 476.078 150.518C476.078 150.518 642.752 134.157 658.878 134.811C675.004 135.465 687.657 146.331 687.14 159.08C686.622 171.83 673.131 181.635 657.005 180.981Z" fill="#FFA426"/>
</g>
<defs>
<clipPath id="clip0_4211_991">
<rect width="688" height="316" fill="white"/>
</clipPath>
</defs>
</svg>
