<svg width="632" height="1263" viewBox="0 0 632 1263" fill="none" xmlns="http://www.w3.org/2000/svg">
<g clip-path="url(#clip0_4211_982)">
<path d="M304.538 217.783C275.762 202.231 2.26343 1.19506 2.26343 1.19506C2.26343 1.19506 320.289 119.84 349.065 135.392C377.842 150.944 391.202 181.995 378.906 204.747C366.611 227.499 333.315 233.335 304.538 217.783Z" fill="#F8F7F5"/>
<path d="M304.539 1252.89C275.763 1237.34 2.26439 1036.3 2.26439 1036.3C2.26439 1036.3 320.29 1154.95 349.066 1170.5C377.843 1186.05 391.203 1217.1 378.907 1239.85C366.612 1262.61 333.316 1268.44 304.539 1252.89Z" fill="#F8F7F5"/>
<path d="M328.632 694.783C357.409 679.231 630.907 478.195 630.907 478.195C630.907 478.195 312.882 596.84 284.105 612.392C255.329 627.944 241.968 658.995 254.264 681.747C266.56 704.498 299.856 710.335 328.632 694.783Z" fill="#F8F7F5"/>
</g>
<defs>
<clipPath id="clip0_4211_982">
<rect width="632" height="1263" fill="white"/>
</clipPath>
</defs>
</svg>
