<svg width="348" height="570" viewBox="0 0 348 570" fill="none" xmlns="http://www.w3.org/2000/svg">
<g clip-path="url(#clip0_4211_2797)">
<path d="M103.005 453.993C88.3651 453.993 76.501 465.787 76.501 480.341C76.501 494.894 88.3651 506.688 103.005 506.688C117.645 506.688 129.509 494.894 129.509 480.341C129.509 465.787 117.645 453.993 103.005 453.993ZM96.1981 467.727C96.1981 463.993 99.2488 460.96 103.005 460.96C106.761 460.96 109.812 463.993 109.812 467.727V480.778C109.812 484.512 106.761 487.545 103.005 487.545C99.2488 487.545 96.1981 484.512 96.1981 480.778V467.727ZM104.956 494.229V500.222H101.063V494.229C94.4482 493.291 89.3453 487.617 89.3453 480.778C89.3453 479.712 90.2157 478.838 91.2967 478.838C92.3778 478.838 93.2481 479.703 93.2481 480.778C93.2481 486.133 97.6364 490.495 103.023 490.495C108.41 490.495 112.799 486.133 112.799 480.778C112.799 479.712 113.669 478.838 114.75 478.838C115.831 478.838 116.701 479.703 116.701 480.778C116.701 487.608 111.598 493.282 104.984 494.229H104.956Z" fill="black"/>
<path d="M144.048 453.819C143.498 452.982 142.362 452.745 141.51 453.291C140.668 453.838 140.429 454.967 140.979 455.814C145.789 463.118 148.336 471.597 148.336 480.34C148.336 489.084 145.789 497.563 140.979 504.867C140.42 505.705 140.658 506.834 141.51 507.39C141.822 507.59 142.17 507.69 142.509 507.69C143.105 507.69 143.691 507.399 144.039 506.87C149.243 498.974 151.991 489.803 151.991 480.35C151.991 470.896 149.243 461.725 144.039 453.829L144.048 453.819Z" fill="black"/>
<path d="M139.137 458.792C138.615 457.936 137.488 457.654 136.618 458.173C135.747 458.692 135.472 459.812 135.995 460.678C139.595 466.598 141.501 473.401 141.501 480.35C141.501 487.299 139.595 494.102 135.995 500.022C135.472 500.887 135.747 501.998 136.618 502.526C136.911 502.709 137.241 502.791 137.561 502.791C138.184 502.791 138.789 502.481 139.128 501.916C143.077 495.432 145.166 487.973 145.166 480.359C145.166 472.745 143.077 465.286 139.128 458.802L139.137 458.792Z" fill="black"/>
<path d="M134.218 463.81C133.741 462.927 132.623 462.59 131.735 463.073C130.846 463.546 130.507 464.657 130.993 465.541C133.439 470.067 134.74 475.186 134.74 480.359C134.74 485.532 133.448 490.65 130.993 495.177C130.516 496.06 130.846 497.171 131.735 497.645C132.01 497.79 132.312 497.863 132.605 497.863C133.256 497.863 133.888 497.517 134.218 496.907C136.948 491.852 138.396 486.133 138.396 480.368C138.396 474.603 136.948 468.883 134.218 463.829V463.81Z" fill="black"/>
<path d="M57.6646 480.65C57.6646 471.907 60.2115 463.428 65.0212 456.124C65.5801 455.286 65.3419 454.157 64.4899 453.601C63.647 453.046 62.511 453.283 61.9521 454.13C56.7484 462.026 54 471.197 54 480.65C54 490.104 56.7484 499.275 61.9521 507.171C62.3003 507.709 62.8866 507.991 63.4821 507.991C63.8302 507.991 64.1784 507.891 64.4807 507.691C65.3235 507.144 65.5617 506.015 65.0121 505.168C60.2023 497.864 57.6554 489.385 57.6554 480.641L57.6646 480.65Z" fill="black"/>
<path d="M64.4905 480.65C64.4905 473.701 66.3963 466.898 69.9971 460.978C70.5194 460.122 70.2445 459.002 69.3741 458.474C68.5036 457.954 67.3858 458.228 66.8544 459.093C62.9054 465.577 60.8164 473.036 60.8164 480.65C60.8164 488.264 62.9054 495.723 66.8544 502.208C67.2026 502.772 67.8073 503.082 68.4212 503.082C68.7419 503.082 69.0717 503 69.3649 502.818C70.2262 502.299 70.5102 501.178 69.9879 500.313C66.3871 494.393 64.4814 487.59 64.4814 480.641L64.4905 480.65Z" fill="black"/>
<path d="M74.2655 463.373C73.3768 462.9 72.2681 463.228 71.7825 464.111C69.043 469.166 67.6045 474.885 67.6045 480.65C67.6045 486.415 69.0521 492.135 71.7825 497.189C72.1124 497.8 72.7446 498.146 73.3951 498.146C73.6883 498.146 73.9815 498.073 74.2655 497.927C75.1543 497.454 75.4933 496.342 75.0077 495.459C72.5613 490.933 71.2603 485.814 71.2603 480.65C71.2603 475.486 72.5522 470.359 75.0077 465.842C75.4841 464.958 75.1543 463.847 74.2655 463.373Z" fill="black"/>
</g>
<circle cx="103" cy="480" r="87" stroke="black" stroke-width="5" stroke-linecap="round" stroke-linejoin="round" stroke-dasharray="0.1 10"/>
<g clip-path="url(#clip1_4211_2797)">
<path d="M281.259 254.013C281.259 239.12 266.848 227 249.134 227C231.42 227 217 239.12 217 254.013C217 261.935 221.055 269.354 228.173 274.502L222.642 281.246C222.165 281.821 222.091 282.633 222.458 283.281C222.788 283.865 223.403 284.221 224.063 284.221C224.137 284.221 224.219 284.221 224.293 284.203C234.182 282.971 249.079 281.127 250.161 281.009C267.6 280.543 281.259 268.697 281.259 254.004V254.013ZM250.006 277.367C249.895 277.367 249.639 277.367 228.384 280.023L232.283 275.268C232.613 274.867 232.751 274.346 232.677 273.826C232.595 273.315 232.301 272.859 231.861 272.576C231.861 272.576 231.283 272.211 231.008 272.019C224.44 267.557 220.678 260.995 220.678 254.013C220.678 241.127 233.448 230.65 249.143 230.65C264.839 230.65 277.599 241.127 277.599 254.013C277.599 266.899 265.481 276.984 250.015 277.367H250.006Z" fill="black"/>
<path d="M292.148 292.562C297.156 288.766 300 283.4 300 277.678C300 269.145 293.588 261.543 284.057 258.75C283.084 258.467 282.066 259.024 281.782 259.991C281.497 260.958 282.057 261.971 283.029 262.254C290.992 264.582 296.34 270.778 296.34 277.678C296.34 282.551 293.698 287.132 289.093 290.263C288.9 290.399 288.497 290.655 288.488 290.655C288.047 290.938 287.754 291.394 287.671 291.905C287.589 292.416 287.735 292.946 288.066 293.347L290.084 295.802C275.948 294.05 275.782 294.041 275.672 294.041C267.242 293.831 259.83 289.286 257.216 282.724C256.84 281.784 255.785 281.328 254.831 281.702C253.886 282.076 253.427 283.135 253.803 284.075C256.941 291.96 265.655 297.427 275.507 297.691C276.425 297.792 287.084 299.115 294.166 299.991C294.239 300 294.322 300.009 294.395 300.009C295.056 300.009 295.67 299.653 296 299.069C296.367 298.421 296.294 297.609 295.817 297.034L292.157 292.571L292.148 292.562Z" fill="black"/>
<path d="M241.29 244.321L235.126 262.19H237.676L239.465 256.915H245.492L247.382 262.19H252.73L246.152 244.321H241.29ZM240.245 254.634L242.355 248.236L244.675 254.634H240.245Z" fill="black"/>
<path d="M259.904 244.321H254.867V262.19H259.904V244.321Z" fill="black"/>
</g>
<circle cx="258" cy="264" r="87" stroke="black" stroke-width="5" stroke-linecap="round" stroke-linejoin="round" stroke-dasharray="0.1 10"/>
<g clip-path="url(#clip2_4211_2797)">
<path d="M130.347 54H83.5895C81.5712 54 79.9365 55.6405 79.9365 57.6659V121.334C79.9365 123.359 81.5712 125 83.5895 125H130.347C132.366 125 134 123.359 134 121.334V57.6659C134 55.6405 132.366 54 130.347 54ZM130.347 121.334H83.5895V57.6659H130.347V121.334Z" fill="black"/>
<path d="M75.2694 87.635H57.5616C56.7854 85.2522 54.5571 83.52 51.9269 83.52C48.6575 83.52 46 86.187 46 89.468C46 92.749 48.6575 95.416 51.9269 95.416C54.5571 95.416 56.7854 93.6838 57.5616 91.301H75.2694C76.274 91.301 77.0959 90.4761 77.0959 89.468C77.0959 88.4599 76.274 87.635 75.2694 87.635ZM51.9269 91.75C50.6758 91.75 49.653 90.7236 49.653 89.468C49.653 88.2124 50.6758 87.186 51.9269 87.186C53.1781 87.186 54.2009 88.2124 54.2009 89.468C54.2009 90.7236 53.1781 91.75 51.9269 91.75Z" fill="black"/>
<path d="M75.2691 79.8631H68.3376L63.2782 73.8876C62.9312 73.4752 62.4197 73.2369 61.8901 73.2369H57.5887C56.8307 70.8174 54.5841 69.0669 51.9357 69.0669C48.6663 69.0669 46.0088 71.7339 46.0088 75.0149C46.0088 78.2959 48.6663 80.9629 51.9357 80.9629C54.5476 80.9629 56.7576 79.2582 57.5522 76.912H61.0499L66.1092 82.8875C66.4563 83.2999 66.9677 83.5382 67.4974 83.5382H75.2782C76.2828 83.5382 77.1047 82.7133 77.1047 81.7052C77.1047 80.6971 76.2828 79.8722 75.2782 79.8722L75.2691 79.8631ZM51.9266 77.2969C50.6755 77.2969 49.6526 76.2705 49.6526 75.0149C49.6526 73.7593 50.6755 72.7328 51.9266 72.7328C53.1777 72.7328 54.2006 73.7593 54.2006 75.0149C54.2006 76.2705 53.1777 77.2969 51.9266 77.2969Z" fill="black"/>
<path d="M75.269 72.0912H71.0132L71.068 67.7104C73.4059 66.9131 75.0863 64.6952 75.0863 62.0832C75.0863 58.8022 72.4288 56.1353 69.1594 56.1353C65.89 56.1353 63.2324 58.8022 63.2324 62.0832C63.2324 64.7502 64.995 67.0139 67.4059 67.7654L67.3329 73.8967C67.3329 74.3916 67.5155 74.859 67.8626 75.2073C68.2096 75.5555 68.6753 75.748 69.1594 75.748H75.269C76.2735 75.748 77.0954 74.9232 77.0954 73.915C77.0954 72.9069 76.2735 72.0821 75.269 72.0821V72.0912ZM69.1594 64.3653C67.9082 64.3653 66.8854 63.3388 66.8854 62.0832C66.8854 60.8277 67.9082 59.8012 69.1594 59.8012C70.4105 59.8012 71.4333 60.8277 71.4333 62.0832C71.4333 63.3388 70.4105 64.3653 69.1594 64.3653Z" fill="black"/>
<path d="M75.2694 95.4067H67.4886C66.9498 95.4067 66.4475 95.645 66.1005 96.0574L61.0411 102.033H57.5434C56.758 99.6776 54.5388 97.9821 51.9269 97.9821C48.6575 97.9821 46 100.649 46 103.93C46 107.211 48.6575 109.878 51.9269 109.878C54.5753 109.878 56.8311 108.118 57.5799 105.708H61.8813C62.4201 105.708 62.9224 105.47 63.2694 105.057L68.3288 99.0818H75.2603C76.2648 99.0818 77.0868 98.257 77.0868 97.2489C77.0868 96.2407 76.2648 95.4159 75.2603 95.4159L75.2694 95.4067ZM51.9269 106.203C50.6758 106.203 49.653 105.176 49.653 103.921C49.653 102.665 50.6758 101.639 51.9269 101.639C53.1781 101.639 54.2009 102.665 54.2009 103.921C54.2009 105.176 53.1781 106.203 51.9269 106.203Z" fill="black"/>
<path d="M75.269 103.179H69.1594C68.6662 103.179 68.2005 103.371 67.8626 103.719C67.5247 104.068 67.3329 104.544 67.3329 105.03L67.4059 111.161C64.9858 111.913 63.2324 114.176 63.2324 116.843C63.2324 120.124 65.89 122.791 69.1594 122.791C72.4288 122.791 75.0863 120.124 75.0863 116.843C75.0863 114.231 73.3968 112.014 71.068 111.216L71.0132 106.835H75.269C76.2735 106.835 77.0954 106.011 77.0954 105.002C77.0954 103.994 76.2735 103.169 75.269 103.169V103.179ZM71.4333 116.853C71.4333 118.108 70.4105 119.135 69.1594 119.135C67.9082 119.135 66.8854 118.108 66.8854 116.853C66.8854 115.597 67.9082 114.57 69.1594 114.57C70.4105 114.57 71.4333 115.597 71.4333 116.853Z" fill="black"/>
<path d="M114.767 83.8499C114.311 83.1442 113.525 82.7227 112.685 82.7227C111.845 82.7227 111.069 83.1442 110.603 83.8499L102.575 96.1033L98.1462 91.0627C97.6348 90.4761 96.8768 90.1645 96.1005 90.2195C95.3243 90.2745 94.6211 90.6869 94.1918 91.3376L86.7581 102.702H127.169L114.758 83.8316L114.767 83.8499Z" fill="black"/>
<path d="M97.9636 86.4161C100.749 86.4161 103.014 84.1432 103.014 81.3479C103.014 78.5527 100.749 76.2798 97.9636 76.2798C95.1782 76.2798 92.9133 78.5527 92.9133 81.3479C92.9133 84.1524 95.1782 86.4161 97.9636 86.4161Z" fill="black"/>
</g>
<circle cx="90" cy="90" r="87" stroke="black" stroke-width="5" stroke-linecap="round" stroke-linejoin="round" stroke-dasharray="0.1 10"/>
<path d="M163.903 136C179.633 128.974 215.96 121.49 230.621 129.921C245.282 138.352 245.435 166.119 239.326 178.949" stroke="black" stroke-width="5" stroke-linecap="round" stroke-dasharray="0.1 10"/>
<path d="M211.898 338C194.335 338.611 156.675 343.9 170.603 362.228C188.013 385.138 248.031 418.587 226.956 433.707C210.096 445.804 192.231 449.667 184.901 451.5" stroke="black" stroke-width="5" stroke-linecap="round" stroke-dasharray="0.1 10"/>
<defs>
<clipPath id="clip0_4211_2797">
<rect width="98" height="55" fill="white" transform="translate(54 453)"/>
</clipPath>
<clipPath id="clip1_4211_2797">
<rect width="83" height="73" fill="white" transform="translate(217 227)"/>
</clipPath>
<clipPath id="clip2_4211_2797">
<rect width="88" height="71" fill="white" transform="translate(46 54)"/>
</clipPath>
</defs>
</svg>
