<svg width="238" height="245" viewBox="0 0 238 245" fill="none" xmlns="http://www.w3.org/2000/svg">
<path d="M68.4453 183.725C62.1648 176.506 4.8668 160.528 1.77483 119.716C-2.09012 68.7013 -4.9889 18.1686 53.9518 4.693C112.892 -8.78257 125.453 10.949 168.934 11.9116C212.415 12.8741 233.672 28.2747 237.537 65.3327C241.402 102.391 221.594 195.275 157.823 187.094C94.0508 178.912 81.4896 198.645 71.3441 207.789C61.1985 216.933 81.0065 222.227 80.5233 233.778C80.1028 243.832 41.9774 244.04 25.7346 244.56C20.3947 245.05 17.5155 245.108 20.1334 244.847C21.385 244.722 23.3175 244.638 25.7346 244.56C40.1033 243.242 72.2889 238.789 63.131 228.965C50.5699 215.489 45.7388 215.008 52.0193 207.789C58.2999 200.57 74.7259 190.945 68.4453 183.725Z" fill="white"/>
</svg>
