<svg width="112" height="112" viewBox="0 0 112 112" fill="none" xmlns="http://www.w3.org/2000/svg">
<path d="M81.05 45.6C81.05 29.28 65.34 16 46.03 16C26.72 16 11 29.28 11 45.6C11 54.28 15.42 62.41 23.18 68.05L17.15 75.44C16.63 76.07 16.55 76.96 16.95 77.67C17.31 78.31 17.98 78.7 18.7 78.7C18.78 78.7 18.87 78.7 18.95 78.68C29.73 77.33 45.97 75.31 47.15 75.18C66.16 74.67 81.05 61.69 81.05 45.59V45.6ZM46.98 71.19C46.86 71.19 46.58 71.19 23.41 74.1L27.66 68.89C28.02 68.45 28.17 67.88 28.09 67.31C28 66.75 27.68 66.25 27.2 65.94C27.2 65.94 26.57 65.54 26.27 65.33C19.11 60.44 15.01 53.25 15.01 45.6C15.01 31.48 28.93 20 46.04 20C63.15 20 77.06 31.48 77.06 45.6C77.06 59.72 63.85 70.77 46.99 71.19H46.98Z" fill="black"/>
<path d="M92.9198 87.84C98.3798 83.68 101.48 77.8 101.48 71.53C101.48 62.18 94.4898 53.85 84.0998 50.79C83.0398 50.48 81.9298 51.09 81.6198 52.15C81.3098 53.21 81.9198 54.32 82.9798 54.63C91.6598 57.18 97.4898 63.97 97.4898 71.53C97.4898 76.87 94.6098 81.89 89.5898 85.32C89.3798 85.47 88.9398 85.75 88.9298 85.75C88.4498 86.06 88.1298 86.56 88.0398 87.12C87.9498 87.68 88.1098 88.26 88.4698 88.7L90.6698 91.39C75.2598 89.47 75.0798 89.46 74.9598 89.46C65.7698 89.23 57.6898 84.25 54.8398 77.06C54.4298 76.03 53.2798 75.53 52.2398 75.94C51.2098 76.35 50.7098 77.51 51.1198 78.54C54.5398 87.18 64.0398 93.17 74.7798 93.46C75.7798 93.57 87.3998 95.02 95.1198 95.98C95.1998 95.99 95.2898 96 95.3698 96C96.0898 96 96.7598 95.61 97.1198 94.97C97.5198 94.26 97.4398 93.37 96.9198 92.74L92.9298 87.85L92.9198 87.84Z" fill="black"/>
<path d="M37.4798 34.98L30.7598 54.56H33.5398L35.4898 48.78H42.0598L44.1198 54.56H49.9498L42.7798 34.98H37.4798ZM36.3398 46.28L38.6398 39.27L41.1698 46.28H36.3398Z" fill="black"/>
<path d="M57.7703 34.98H52.2803V54.56H57.7703V34.98Z" fill="black"/>
</svg>
