<svg width="150" height="150" viewBox="0 0 150 150" fill="none" xmlns="http://www.w3.org/2000/svg">
<circle cx="75" cy="75" r="75" fill="white"/>
<g clip-path="url(#clip0_4211_3243)">
<path d="M114.895 91.9886L114.815 91.9091C114.706 91.8096 114.586 91.6505 114.476 91.4714C114.207 91.0338 113.988 90.447 113.988 90.0691V88.4876V45.9784C113.988 43.7803 112.203 42 109.999 42H39.9915C37.7875 42 36.0024 43.7803 36.0024 45.9784V90.079C36.0024 90.6061 35.5736 91.561 35.1847 91.919L35.1049 91.9986C26 101.089 26 102.203 26 103.009V108.022C26 110.22 27.7851 112 29.989 112H120.011C122.215 112 124 110.22 124 108.022V103.009C124 102.203 124 101.089 114.895 91.9886ZM84.8778 105.396C84.8778 106.49 83.9803 107.385 82.8833 107.385H67.1267C66.0297 107.385 65.1322 106.49 65.1322 105.396V104.54C65.1322 103.446 66.0297 102.551 67.1267 102.551H82.8833C83.9803 102.551 84.8778 103.446 84.8778 104.54V105.396ZM110.009 84.5192H39.9915V45.9784H109.999V84.5192H110.009Z" fill="#FFA426"/>
<g clip-path="url(#clip1_4211_3243)">
<path fill-rule="evenodd" clip-rule="evenodd" d="M58.1789 64.653C58.5778 64.653 58.9011 64.9754 58.9011 65.3732C58.9011 74.1373 65.8713 81.2182 74.4289 81.2182C82.9864 81.2182 89.9535 74.1407 89.9535 65.3732C89.9535 64.9754 90.2768 64.653 90.6756 64.653C91.0744 64.653 91.3978 64.9754 91.3978 65.3732C91.3978 74.9063 83.8137 82.6587 74.4289 82.6587C65.0441 82.6587 57.4568 74.9031 57.4568 65.3732C57.4568 64.9754 57.7801 64.653 58.1789 64.653Z" fill="black"/>
<g clip-path="url(#clip2_4211_3243)">
<path d="M87.0408 65.5148H78.8471C77.3126 65.5148 76.9437 66.3888 78.0307 67.4618L79.5356 68.9476L85.7965 75.1287C88.3639 72.4387 89.7213 69.2098 89.8295 65.5148H87.0458H87.0408Z" fill="#99B901"/>
<path d="M71.7107 62.5966L65.9171 56.8769C65.9171 56.8769 65.8925 56.8526 65.8777 56.8429L63.9399 54.9298C61.3726 57.6198 60.0152 60.8487 59.907 64.5437H70.8943C72.4288 64.5437 72.7977 63.6697 71.7107 62.5966Z" fill="#FFA426"/>
<path d="M70.8943 65.5148H59.907C60.0152 69.2098 61.3726 72.4387 63.9399 75.1287L65.8777 73.2156C65.8777 73.2156 65.9023 73.1913 65.9171 73.1816L71.7107 67.4618C72.7927 66.3936 72.4288 65.5148 70.8943 65.5148Z" fill="#105F00"/>
<path d="M74.3765 68.9525C74.3765 67.4376 73.4912 67.0734 72.4043 68.1465L70.7764 69.7536L64.6384 75.8133C67.3631 78.3479 70.6337 79.688 74.3765 79.7948V77.1146C74.3765 77.0903 74.3765 77.066 74.3765 77.0417V68.9525Z" fill="#E10048"/>
<path d="M83.1653 73.9051C83.1653 73.9051 83.1407 73.8808 83.1309 73.8662L77.3372 68.1464C76.2552 67.0782 75.365 67.4375 75.365 68.9524V71.1665V79.7948C79.1078 79.688 82.3784 78.3478 85.1031 75.8133L83.1702 73.9051H83.1653Z" fill="#E28301"/>
</g>
<path d="M84.8309 62.523C83.2205 63.5512 76.9548 65.0545 76.9548 65.0545C76.9548 65.0545 80.9722 59.995 82.5825 58.9669C84.1928 57.9387 86.0023 57.9014 86.6201 58.8854C87.2379 59.8695 86.4378 61.4983 84.8275 62.5264L84.8309 62.523Z" fill="#FFA426"/>
<path d="M72.5696 54.9288C73.2853 56.7069 73.633 63.1712 73.633 63.1712C73.633 63.1712 69.403 58.2916 68.6839 56.5135C67.9648 54.7354 68.2551 52.9437 69.3287 52.506C70.4022 52.0683 71.8505 53.1541 72.5696 54.9322V54.9288Z" fill="#E10048"/>
<path d="M80.6655 56.5506C79.8924 58.305 75.5105 63.0488 75.5105 63.0488C75.5105 63.0488 76.0574 56.5981 76.8305 54.8438C77.6036 53.0895 79.0856 52.0511 80.1456 52.5228C81.2057 52.9945 81.4352 54.7963 80.6655 56.5506Z" fill="#99B901"/>
<path d="M89.2011 61.0145C89.9823 61.0145 90.6156 60.3779 90.6156 59.5927C90.6156 58.8075 89.9823 58.1709 89.2011 58.1709C88.4199 58.1709 87.7866 58.8075 87.7866 59.5927C87.7866 60.3779 88.4199 61.0145 89.2011 61.0145Z" fill="#E28301"/>
<path d="M74.7583 53.092C75.5395 53.092 76.1728 52.4554 76.1728 51.6702C76.1728 50.885 75.5395 50.2484 74.7583 50.2484C73.977 50.2484 73.3438 50.885 73.3438 51.6702C73.3438 52.4554 73.977 53.092 74.7583 53.092Z" fill="#99B901"/>
<path d="M86.5854 65.1535C87.1186 65.1535 87.5509 64.719 87.5509 64.183C87.5509 63.647 87.1186 63.2125 86.5854 63.2125C86.0521 63.2125 85.6199 63.647 85.6199 64.183C85.6199 64.719 86.0521 65.1535 86.5854 65.1535Z" fill="#E10048"/>
<path d="M88.8198 55.1863C89.353 55.1863 89.7853 54.7518 89.7853 54.2158C89.7853 53.6799 89.353 53.2454 88.8198 53.2454C88.2865 53.2454 87.8542 53.6799 87.8542 54.2158C87.8542 54.7518 88.2865 55.1863 88.8198 55.1863Z" fill="#E10048"/>
<path d="M82.4265 51.1923C82.9597 51.1923 83.392 50.7578 83.392 50.2218C83.392 49.6858 82.9597 49.2513 82.4265 49.2513C81.8932 49.2513 81.4609 49.6858 81.4609 50.2218C81.4609 50.7578 81.8932 51.1923 82.4265 51.1923Z" fill="#FFA426"/>
<path d="M68.5317 68.7546C69.0649 68.7546 69.4972 68.3201 69.4972 67.7841C69.4972 67.2481 69.0649 66.8136 68.5317 66.8136C67.9984 66.8136 67.5662 67.2481 67.5662 67.7841C67.5662 68.3201 67.9984 68.7546 68.5317 68.7546Z" fill="white"/>
<path d="M71.829 71.7246C72.1889 71.7246 72.4806 71.4314 72.4806 71.0697C72.4806 70.708 72.1889 70.4148 71.829 70.4148C71.4692 70.4148 71.1775 70.708 71.1775 71.0697C71.1775 71.4314 71.4692 71.7246 71.829 71.7246Z" fill="white"/>
<path d="M66.7734 70.2842C67.1332 70.2842 67.4249 69.991 67.4249 69.6293C67.4249 69.2676 67.1332 68.9744 66.7734 68.9744C66.4135 68.9744 66.1218 69.2676 66.1218 69.6293C66.1218 69.991 66.4135 70.2842 66.7734 70.2842Z" fill="white"/>
<path d="M69.6621 63.8021C70.0219 63.8021 70.3136 63.5089 70.3136 63.1472C70.3136 62.7855 70.0219 62.4923 69.6621 62.4923C69.3022 62.4923 69.0105 62.7855 69.0105 63.1472C69.0105 63.5089 69.3022 63.8021 69.6621 63.8021Z" fill="white"/>
<path d="M76.1621 74.6055C76.5219 74.6055 76.8136 74.3123 76.8136 73.9506C76.8136 73.5889 76.5219 73.2957 76.1621 73.2957C75.8022 73.2957 75.5105 73.5889 75.5105 73.9506C75.5105 74.3123 75.8022 74.6055 76.1621 74.6055Z" fill="white"/>
<path d="M79.0497 68.1234C79.4096 68.1234 79.7013 67.8302 79.7013 67.4685C79.7013 67.1068 79.4096 66.8136 79.0497 66.8136C78.6899 66.8136 78.3982 67.1068 78.3982 67.4685C78.3982 67.8302 78.6899 68.1234 79.0497 68.1234Z" fill="white"/>
<path d="M72.143 74.5164C72.6762 74.5164 73.1085 74.0819 73.1085 73.5459C73.1085 73.0099 72.6762 72.5754 72.143 72.5754C71.6098 72.5754 71.1775 73.0099 71.1775 73.5459C71.1775 74.0819 71.6098 74.5164 72.143 74.5164Z" fill="white"/>
<path d="M77.1979 72.3558C77.7312 72.3558 78.1634 71.9213 78.1634 71.3853C78.1634 70.8493 77.7312 70.4148 77.1979 70.4148C76.6647 70.4148 76.2324 70.8493 76.2324 71.3853C76.2324 71.9213 76.6647 72.3558 77.1979 72.3558Z" fill="white"/>
<path d="M81.5307 69.4748C82.0639 69.4748 82.4962 69.0403 82.4962 68.5043C82.4962 67.9683 82.0639 67.5338 81.5307 67.5338C80.9975 67.5338 80.5652 67.9683 80.5652 68.5043C80.5652 69.0403 80.9975 69.4748 81.5307 69.4748Z" fill="white"/>
<path d="M67.0873 63.7129C67.6206 63.7129 68.0529 63.2784 68.0529 62.7425C68.0529 62.2065 67.6206 61.772 67.0873 61.772C66.5541 61.772 66.1218 62.2065 66.1218 62.7425C66.1218 63.2784 66.5541 63.7129 67.0873 63.7129Z" fill="white"/>
<path d="M71.0493 50.0286C71.5825 50.0286 72.0148 49.5941 72.0148 49.0581C72.0148 48.5221 71.5825 48.0876 71.0493 48.0876C70.516 48.0876 70.0837 48.5221 70.0837 49.0581C70.0837 49.5941 70.516 50.0286 71.0493 50.0286Z" fill="#E28301"/>
<path d="M84.0979 56.0689C84.8791 56.0689 85.5124 55.4324 85.5124 54.6471C85.5124 53.8619 84.8791 53.2253 84.0979 53.2253C83.3166 53.2253 82.6833 53.8619 82.6833 54.6471C82.6833 55.4324 83.3166 56.0689 84.0979 56.0689Z" fill="#105F00"/>
</g>
</g>
<defs>
<clipPath id="clip0_4211_3243">
<rect width="98" height="70" fill="white" transform="translate(26 42)"/>
</clipPath>
<clipPath id="clip1_4211_3243">
<rect width="34.9038" height="34.811" fill="white" transform="translate(56.9148 47.9677)"/>
</clipPath>
<clipPath id="clip2_4211_3243">
<rect width="29.9176" height="24.865" fill="white" transform="translate(59.907 54.9298)"/>
</clipPath>
</defs>
</svg>
