<svg width="150" height="150" viewBox="0 0 150 150" fill="none" xmlns="http://www.w3.org/2000/svg">
<circle cx="75" cy="75" r="75" fill="white"/>
<g clip-path="url(#clip0_4211_3309)">
<path d="M125.998 59H25.0023C23.901 59 23 59.9011 23 61.0025V87.5857C23 88.6871 23.901 89.5882 25.0023 89.5882H84.0798L86.6427 92.6421C84.6505 92.6821 82.8584 93.363 81.8272 94.5144C80.9963 95.4355 80.6659 96.607 80.9062 97.8185C81.4468 100.622 83.2388 101.203 84.6705 101.663C84.8807 101.733 85.101 101.804 85.3412 101.894C86.913 102.454 87.9743 102.895 89.4359 104.397C96.1336 111.235 101.269 112.367 104.703 111.826L106.786 114.309C107.126 114.72 107.617 114.97 108.147 115.02C108.207 115.02 108.267 115.02 108.318 115.02C108.788 115.02 109.239 114.86 109.609 114.549L121.893 104.237C122.744 103.526 122.854 102.264 122.143 101.413L119.67 98.4593C119.6 96.8673 119.2 93.1827 117.148 89.8085C117.118 89.7284 117.068 89.6583 117.027 89.5882H125.988C127.089 89.5882 127.99 88.6871 127.99 87.5857V61.0025C127.99 59.9011 127.089 59 125.988 59H125.998ZM117.798 102.444L108.578 110.184L106.996 108.302C106.606 107.841 106.045 107.591 105.464 107.591C105.264 107.591 105.064 107.621 104.864 107.681C102.571 108.412 98.5363 107.941 92.3192 101.593C90.2669 99.5006 88.5649 98.7797 86.7028 98.1189C86.4325 98.0188 86.1722 97.9387 85.9319 97.8586C85.5815 97.7384 85.091 97.5882 85.0009 97.5081C85.0009 97.5081 84.9408 97.418 84.8807 97.1477C85.141 96.9274 86.0621 96.5569 87.3435 96.6671C88.1745 96.7372 90.0566 97.9487 91.0578 98.6095C91.6985 99.02 92.2491 99.3805 92.7197 99.6208C93.5707 100.061 94.6018 99.8411 95.2025 99.0901C95.8032 98.3492 95.7832 97.2879 95.1725 96.5569L80.9863 79.6458C80.746 79.3554 80.776 78.8949 81.0764 78.6546C81.3667 78.4143 81.8172 78.4543 82.0675 78.7447L89.6762 87.806C90.3169 88.577 91.4382 88.7472 92.2892 88.2065C93.1402 87.6658 93.4505 86.5845 93.03 85.6733C92.9199 85.423 92.9399 85.0626 93.2102 84.8323C93.5006 84.582 93.9511 84.622 94.2014 84.9224L95.4628 86.4243C96.1035 87.1952 97.2248 87.3655 98.0758 86.8248C98.9268 86.2841 99.2371 85.2028 98.8167 84.2916C98.7065 84.0413 98.7265 83.6809 98.9969 83.4506C99.2872 83.2103 99.7477 83.2503 99.988 83.5407L101.309 85.1126C101.95 85.8836 103.072 86.0538 103.922 85.5131C104.773 84.9725 105.084 83.8911 104.663 82.98C104.553 82.7297 104.573 82.3692 104.844 82.1389C105.134 81.8886 105.584 81.9387 105.835 82.229L113.463 91.3204C113.503 91.3705 113.543 91.4305 113.574 91.5006C113.614 91.6008 113.664 91.7009 113.724 91.801C115.796 95.1352 115.736 99.1201 115.736 99.1502C115.726 99.6408 115.886 100.121 116.207 100.492L117.848 102.444H117.798ZM123.995 85.5832H113.834L108.858 79.6558C107.186 77.6633 104.213 77.403 102.231 79.0751C101.97 79.2954 101.74 79.5357 101.54 79.786C99.9079 78.965 97.8756 79.1352 96.3839 80.3767C96.1136 80.597 95.8733 80.8473 95.6731 81.1176C94.0612 80.3467 92.0689 80.5269 90.6073 81.7484C90.4471 81.8786 90.3069 82.0188 90.1668 82.169L85.111 76.1414C83.4391 74.1489 80.4657 73.8886 78.4734 75.5607C76.4911 77.2328 76.2208 80.2065 77.8927 82.189L80.716 85.5532H27.0046V63.005H123.995V85.5832Z" fill="#FFA426"/>
</g>
<defs>
<clipPath id="clip0_4211_3309">
<rect width="105" height="56" fill="white" transform="translate(23 59)"/>
</clipPath>
</defs>
</svg>
