<svg width="150" height="150" viewBox="0 0 150 150" fill="none" xmlns="http://www.w3.org/2000/svg">
<circle cx="75" cy="75" r="75" fill="white"/>
<g clip-path="url(#clip0_4211_3298)">
<path d="M56.9161 55.5273H92.0738C93.1728 55.5273 94.072 54.6318 94.072 53.5373C94.072 52.4428 93.1728 51.5472 92.0738 51.5472H56.9161C55.8171 51.5472 54.918 52.4428 54.918 53.5373C54.918 54.6318 55.8171 55.5273 56.9161 55.5273Z" fill="#FFA426"/>
<path d="M56.9161 63.2587H92.0738C93.1728 63.2587 94.072 62.3631 94.072 61.2686C94.072 60.1741 93.1728 59.2786 92.0738 59.2786H56.9161C55.8171 59.2786 54.918 60.1741 54.918 61.2686C54.918 62.3631 55.8171 63.2587 56.9161 63.2587Z" fill="#FFA426"/>
<path d="M94.082 68.99C94.082 67.8955 93.1828 67 92.0838 67H56.9161C55.8171 67 54.918 67.8955 54.918 68.99C54.918 70.0846 55.8171 70.9801 56.9161 70.9801H92.0738C93.1728 70.9801 94.072 70.0846 94.072 68.99H94.082Z" fill="#FFA426"/>
<path d="M116.182 60.0075L103.134 51.3109V42.4154C103.134 41.3209 102.234 40.4254 101.136 40.4254H86.7987L76.5381 33.5896C75.3592 32.8035 73.6408 32.8035 72.4619 33.5896L62.2013 40.4254H47.8645C46.7655 40.4254 45.8663 41.3209 45.8663 42.4154V51.3109L32.8183 60.0075C31.7493 60.7139 31 62.107 31 63.3906V113.888C31 115.6 32.3987 116.993 34.1171 116.993H114.883C116.601 116.993 118 115.6 118 113.888V63.4005C118 62.1169 117.251 60.7239 116.182 60.0174V60.0075ZM103.134 56.097L112.855 62.5746L103.134 71.6095V56.097ZM74.5 37.0224L79.6153 40.4254H69.3847L74.5 37.0224ZM49.8527 44.4055H99.1373V75.3209L86.9386 86.6542H62.0914L49.8527 75.2612V44.4055ZM45.8563 56.107V71.5498L36.1852 62.5547L45.8563 56.107ZM34.9863 66.8831L58.3548 88.6244L34.9963 110.316V66.8831H34.9863ZM37.9336 113.022L62.0415 90.6443H86.9286L111.016 113.022H37.9436H37.9336ZM113.994 110.346L90.6452 88.6542L113.994 66.9726V110.346Z" fill="#FFA426"/>
</g>
<defs>
<clipPath id="clip0_4211_3298">
<rect width="87" height="84" fill="white" transform="translate(31 33)"/>
</clipPath>
</defs>
</svg>
