<svg width="150" height="150" viewBox="0 0 150 150" fill="none" xmlns="http://www.w3.org/2000/svg">
<circle cx="75" cy="75" r="75" fill="white"/>
<g clip-path="url(#clip0_4211_3288)">
<path d="M72.7795 66.6447C80.8143 66.6447 87.3278 60.1578 87.3278 52.1559C87.3278 44.154 80.8143 37.6671 72.7795 37.6671C64.7447 37.6671 58.2312 44.154 58.2312 52.1559C58.2312 60.1578 64.7447 66.6447 72.7795 66.6447Z" fill="#FFA426"/>
<path d="M116.957 87.9175C118.645 83.1146 119.559 77.9515 119.559 72.5882C119.559 46.9027 98.5706 26 72.7796 26C46.9885 26 26 46.9027 26 72.5882C26 98.2738 46.9885 119.176 72.7796 119.176C77.4113 119.176 81.8823 118.496 86.1021 117.245C90.0306 121.978 95.9684 125 102.6 125C114.405 125 124 115.434 124 103.687C124 97.4433 121.267 91.8299 116.957 87.9275V87.9175ZM30.0189 72.5882C30.0189 49.104 49.1989 30.0024 72.7796 30.0024C96.3603 30.0024 115.54 49.104 115.54 72.5882C115.54 77.0509 114.847 81.3535 113.561 85.406C110.346 83.4848 106.608 82.3642 102.6 82.3642C100.058 82.3642 97.6262 82.8344 95.3656 83.6449C90.2315 75.2198 82.033 69.7665 72.7796 69.7665C57.2366 69.7665 44.6375 85.1759 44.6375 104.177C44.6375 104.327 44.6375 104.478 44.6375 104.628C35.6855 96.8129 30.0088 85.356 30.0088 72.5982L30.0189 72.5882ZM81.1991 103.677C81.1991 104.347 81.2393 104.988 81.2996 105.628C81.2393 104.988 81.1991 104.337 81.1991 103.677ZM81.3699 106.219C81.4201 106.679 81.5005 107.139 81.5809 107.589C81.5005 107.139 81.4302 106.679 81.3699 106.219ZM81.6914 108.18C81.822 108.77 81.9727 109.361 82.1435 109.931C81.9627 109.361 81.822 108.77 81.6914 108.18ZM82.3043 110.401C82.4449 110.821 82.5957 111.242 82.7665 111.662C82.5957 111.252 82.4449 110.831 82.3043 110.401ZM83.0779 112.382C83.2286 112.703 83.3793 113.023 83.5401 113.333C83.3793 113.023 83.2186 112.703 83.0779 112.382ZM89.7392 86.6768C89.7392 86.6768 89.6588 86.7368 89.6186 86.7668C89.6588 86.7368 89.699 86.7068 89.7392 86.6768ZM102.579 120.998C92.9945 120.998 85.1979 113.233 85.1979 103.687C85.1979 94.1413 92.9945 86.3766 102.579 86.3766C112.164 86.3766 119.961 94.1413 119.961 103.687C119.961 113.233 112.164 120.998 102.579 120.998Z" fill="#FFA426"/>
<path d="M116.485 97.2332C115.761 96.3927 114.495 96.3026 113.651 97.0231L99.4246 109.21L91.6682 101.486C90.8845 100.705 89.6085 100.705 88.8248 101.486C88.0411 102.266 88.0411 103.537 88.8248 104.317L97.8974 113.353C98.2892 113.743 98.8017 113.943 99.3141 113.943C99.7762 113.943 100.248 113.783 100.62 113.463L116.264 100.065C117.108 99.3445 117.198 98.0837 116.475 97.2432L116.485 97.2332Z" fill="#FFA426"/>
</g>
<defs>
<clipPath id="clip0_4211_3288">
<rect width="98" height="99" fill="white" transform="translate(26 26)"/>
</clipPath>
</defs>
</svg>
