<svg width="280" height="140" viewBox="0 0 280 140" fill="none" xmlns="http://www.w3.org/2000/svg">
<g clip-path="url(#clip0_4211_3142)">
<path d="M86.65 78.03L107.07 57.66C106.52 56.79 105.82 55.99 105 55.32C103.6 54.19 101.84 53.45 99.93 53.16L75 78.03H86.65Z" fill="#513517"/>
<path d="M84.3 67.24C84.2 62.99 85.65 58.71 88.67 55.74C93.1 51.38 100.84 50.58 105.67 54.49C108.7 56.94 110.36 61.2 109.18 64.91C108.38 67.45 106.11 69.47 103.57 70.1C106.5 70.16 109.57 68.52 110.96 65.86C113.01 61.95 111.63 56.79 108.35 53.83C105.07 50.87 100.3 49.95 95.94 50.66C88.68 51.85 82.27 57.72 80.98 64.96C80.65 66.82 80.66 68.71 80.96 70.55L84.29 67.23L84.3 67.24Z" fill="#513517"/>
<path d="M159.3 62.43C149.63 63.67 141.84 70.58 133.85 76.16C128.75 79.72 123.17 82.23 117.22 84.04C111.27 85.85 105.63 86.83 98.9701 85.02C94.7901 83.89 91.0301 81.22 88.3101 77.88L87.0801 79.1H84.5901C86.1501 81.26 88.1001 83.14 90.3201 84.59C96.7401 88.8 104.89 89.73 112.47 88.55C120.05 87.37 127.19 84.25 134.07 80.86C140.81 77.54 147.51 73.89 154.86 72.32C164.8 70.19 175.55 72.17 184.09 77.7C172.84 72.32 159.04 72.63 148.05 78.52C156.25 85.67 167.39 89.33 178.24 88.43C189.08 87.53 199.47 82.07 206.37 73.66C190.1 74.92 175.48 60.35 159.3 62.43Z" fill="#513517"/>
<path d="M128.63 47.75V53.86H122.52C122.52 50.49 125.26 47.75 128.63 47.75Z" fill="#513517"/>
<path d="M131.27 47.75C134.64 47.75 137.38 50.49 137.38 53.86H131.27V47.75Z" fill="#513517"/>
<path d="M128.63 56.11H122.52V62.22H128.63V56.11Z" fill="#513517"/>
<path d="M137.38 56.11H131.27V62.22H137.38V56.11Z" fill="#513517"/>
<path d="M130.1 23L115.06 38.04V33.42L108.3 29.08L103.17 33.75L107.82 32.35V45.29L103.17 49.94C105.42 50.53 107.44 51.59 109.07 53.06C109.53 53.48 109.96 53.93 110.34 54.41L130.1 34.65L157.17 61.72C157.83 61.58 158.49 61.47 159.16 61.38C160.25 61.24 161.38 61.17 162.51 61.17C164.68 61.17 166.83 61.43 168.95 61.87L130.1 23Z" fill="#513517"/>
<path d="M111.93 54.43L130.1 36.62L147.91 54.43L129.92 39.52L111.93 54.43Z" fill="#513517"/>
</g>
<path d="M209.326 109.44C209.326 108.667 209.239 107.88 209.066 107.08C208.906 106.28 208.639 105.54 208.266 104.86C207.892 104.18 207.392 103.633 206.766 103.22C206.139 102.793 205.366 102.58 204.446 102.58C203.552 102.58 202.792 102.8 202.166 103.24C201.539 103.68 201.032 104.253 200.646 104.96C200.259 105.653 199.972 106.407 199.786 107.22C199.612 108.02 199.526 108.793 199.526 109.54C199.526 110.327 199.606 111.12 199.766 111.92C199.926 112.707 200.192 113.433 200.566 114.1C200.939 114.753 201.439 115.28 202.066 115.68C202.706 116.08 203.499 116.28 204.446 116.28C205.392 116.28 206.179 116.073 206.806 115.66C207.432 115.247 207.926 114.707 208.286 114.04C208.659 113.36 208.926 112.62 209.086 111.82C209.246 111.02 209.326 110.227 209.326 109.44ZM211.506 109.38C211.506 110.86 211.232 112.167 210.686 113.3C210.152 114.42 209.359 115.293 208.306 115.92C207.266 116.547 205.979 116.86 204.446 116.86C202.952 116.86 201.672 116.56 200.606 115.96C199.552 115.347 198.746 114.493 198.186 113.4C197.626 112.293 197.346 111.007 197.346 109.54C197.346 108.513 197.512 107.547 197.846 106.64C198.179 105.733 198.659 104.933 199.286 104.24C199.912 103.547 200.659 103.007 201.526 102.62C202.406 102.22 203.379 102.02 204.446 102.02C205.939 102.02 207.206 102.333 208.246 102.96C209.299 103.573 210.106 104.433 210.666 105.54C211.226 106.633 211.506 107.913 211.506 109.38Z" fill="#513517"/>
<path d="M194.861 110.64C194.861 110.72 194.841 110.793 194.801 110.86C194.761 110.927 194.694 110.96 194.601 110.96H193.361V115.24C192.427 115.56 191.501 115.913 190.581 116.3C190.141 116.487 189.674 116.607 189.181 116.66C188.701 116.713 188.227 116.74 187.761 116.74C187.361 116.74 186.914 116.693 186.421 116.6C185.927 116.507 185.447 116.373 184.981 116.2C184.527 116.027 184.127 115.827 183.781 115.6C182.767 114.92 182.014 114.04 181.521 112.96C181.041 111.88 180.801 110.733 180.801 109.52C180.801 108.493 180.961 107.527 181.281 106.62C181.614 105.713 182.087 104.913 182.701 104.22C183.314 103.527 184.047 102.987 184.901 102.6C185.767 102.2 186.734 102 187.801 102C188.587 102 189.341 102.107 190.061 102.32C190.181 102.36 190.374 102.42 190.641 102.5C190.907 102.58 191.174 102.66 191.441 102.74C191.707 102.807 191.887 102.84 191.981 102.84C192.261 102.84 192.454 102.807 192.561 102.74C192.667 102.66 192.747 102.573 192.801 102.48C192.867 102.387 192.961 102.313 193.081 102.26H193.241C193.347 102.26 193.407 102.32 193.421 102.44C193.447 102.573 193.454 102.713 193.441 102.86C193.441 103.007 193.441 103.153 193.441 103.3C193.441 103.713 193.447 104.127 193.461 104.54C193.487 104.953 193.501 105.373 193.501 105.8C193.501 105.96 193.494 106.147 193.481 106.36C193.481 106.573 193.361 106.68 193.121 106.68C193.041 106.68 192.967 106.673 192.901 106.66C192.847 106.633 192.794 106.587 192.741 106.52C192.727 106.493 192.694 106.42 192.641 106.3C192.587 106.167 192.534 106.033 192.481 105.9C192.427 105.753 192.387 105.653 192.361 105.6C192.001 104.787 191.474 104.107 190.781 103.56C190.421 103.267 189.961 103.033 189.401 102.86C188.854 102.687 188.347 102.6 187.881 102.6C186.987 102.6 186.227 102.82 185.601 103.26C184.974 103.687 184.467 104.247 184.081 104.94C183.694 105.633 183.414 106.38 183.241 107.18C183.067 107.98 182.981 108.753 182.981 109.5C182.981 110.287 183.074 111.06 183.261 111.82C183.447 112.58 183.734 113.267 184.121 113.88C184.521 114.493 185.041 114.987 185.681 115.36C186.321 115.72 187.087 115.9 187.981 115.9C188.247 115.9 188.567 115.873 188.941 115.82C189.314 115.767 189.687 115.673 190.061 115.54C190.434 115.407 190.741 115.227 190.981 115C191.234 114.773 191.361 114.487 191.361 114.14V111.5C191.361 111.287 191.254 111.153 191.041 111.1C190.841 111.033 190.667 111 190.521 111C190.321 111 190.121 111.013 189.921 111.04C189.721 111.053 189.521 111.06 189.321 111.06C189.214 111.06 189.141 111.027 189.101 110.96C189.074 110.893 189.061 110.813 189.061 110.72C189.061 110.64 189.074 110.567 189.101 110.5C189.127 110.42 189.194 110.38 189.301 110.38C189.514 110.38 189.721 110.387 189.921 110.4C190.121 110.4 190.327 110.4 190.541 110.4H191.961C192.187 110.4 192.414 110.4 192.641 110.4C192.867 110.4 193.094 110.393 193.321 110.38C193.547 110.38 193.767 110.373 193.981 110.36C194.194 110.333 194.407 110.32 194.621 110.32C194.701 110.32 194.761 110.36 194.801 110.44C194.841 110.507 194.861 110.573 194.861 110.64Z" fill="#513517"/>
<path d="M175.294 109.44C175.294 108.667 175.208 107.88 175.034 107.08C174.874 106.28 174.608 105.54 174.234 104.86C173.861 104.18 173.361 103.633 172.734 103.22C172.108 102.793 171.334 102.58 170.414 102.58C169.521 102.58 168.761 102.8 168.134 103.24C167.508 103.68 167.001 104.253 166.614 104.96C166.228 105.653 165.941 106.407 165.754 107.22C165.581 108.02 165.494 108.793 165.494 109.54C165.494 110.327 165.574 111.12 165.734 111.92C165.894 112.707 166.161 113.433 166.534 114.1C166.908 114.753 167.408 115.28 168.034 115.68C168.674 116.08 169.468 116.28 170.414 116.28C171.361 116.28 172.148 116.073 172.774 115.66C173.401 115.247 173.894 114.707 174.254 114.04C174.628 113.36 174.894 112.62 175.054 111.82C175.214 111.02 175.294 110.227 175.294 109.44ZM177.474 109.38C177.474 110.86 177.201 112.167 176.654 113.3C176.121 114.42 175.328 115.293 174.274 115.92C173.234 116.547 171.948 116.86 170.414 116.86C168.921 116.86 167.641 116.56 166.574 115.96C165.521 115.347 164.714 114.493 164.154 113.4C163.594 112.293 163.314 111.007 163.314 109.54C163.314 108.513 163.481 107.547 163.814 106.64C164.148 105.733 164.628 104.933 165.254 104.24C165.881 103.547 166.628 103.007 167.494 102.62C168.374 102.22 169.348 102.02 170.414 102.02C171.908 102.02 173.174 102.333 174.214 102.96C175.268 103.573 176.074 104.433 176.634 105.54C177.194 106.633 177.474 107.913 177.474 109.38Z" fill="#513517"/>
<path d="M156.874 105.7C156.874 104.527 156.567 103.727 155.954 103.3C155.354 102.86 154.507 102.64 153.414 102.64H152.754C152.62 102.64 152.454 102.653 152.254 102.68C152.067 102.693 151.894 102.74 151.734 102.82C151.587 102.887 151.514 103.013 151.514 103.2V108.76C151.66 108.813 151.827 108.847 152.014 108.86C152.2 108.873 152.374 108.88 152.534 108.88C153.067 108.88 153.587 108.833 154.094 108.74C154.614 108.647 155.08 108.487 155.494 108.26C155.92 108.033 156.254 107.713 156.494 107.3C156.747 106.887 156.874 106.353 156.874 105.7ZM161.254 116.48C161.254 116.573 161.16 116.647 160.974 116.7C160.787 116.753 160.567 116.787 160.314 116.8C160.06 116.827 159.82 116.84 159.594 116.84C159.38 116.84 159.234 116.84 159.154 116.84C158.62 116.84 158.194 116.787 157.874 116.68C157.554 116.56 157.24 116.26 156.934 115.78C156.28 114.727 155.647 113.66 155.034 112.58C154.434 111.5 153.834 110.413 153.234 109.32L151.514 109.38V115.72C151.514 115.92 151.594 116.053 151.754 116.12C151.914 116.187 152.074 116.22 152.234 116.22C152.42 116.22 152.6 116.213 152.774 116.2C152.947 116.187 153.12 116.18 153.294 116.18C153.387 116.18 153.44 116.22 153.454 116.3C153.48 116.38 153.494 116.453 153.494 116.52C153.494 116.627 153.46 116.7 153.394 116.74C153.34 116.767 153.267 116.78 153.174 116.78C152.587 116.78 151.994 116.773 151.394 116.76C150.794 116.733 150.2 116.72 149.614 116.72C149.294 116.72 148.974 116.733 148.654 116.76C148.347 116.773 148.034 116.78 147.714 116.78C147.634 116.78 147.58 116.747 147.554 116.68C147.54 116.6 147.534 116.533 147.534 116.48C147.534 116.307 147.607 116.22 147.754 116.22C147.874 116.22 147.987 116.227 148.094 116.24C148.214 116.24 148.327 116.24 148.434 116.24C148.634 116.24 148.847 116.22 149.074 116.18C149.314 116.127 149.447 115.973 149.474 115.72C149.5 115.387 149.507 115 149.494 114.56C149.494 114.107 149.494 113.713 149.494 113.38C149.494 112.94 149.494 112.5 149.494 112.06C149.494 111.607 149.494 111.16 149.494 110.72C149.494 109.8 149.494 108.88 149.494 107.96C149.507 107.04 149.514 106.12 149.514 105.2C149.514 104.867 149.514 104.533 149.514 104.2C149.514 103.853 149.5 103.52 149.474 103.2C149.447 102.933 149.307 102.787 149.054 102.76C148.814 102.72 148.594 102.7 148.394 102.7C148.314 102.7 148.234 102.707 148.154 102.72C148.074 102.72 147.994 102.72 147.914 102.72C147.714 102.72 147.614 102.607 147.614 102.38C147.614 102.233 147.68 102.16 147.814 102.16C148.267 102.16 148.714 102.173 149.154 102.2C149.607 102.227 150.06 102.24 150.514 102.24C151.14 102.24 151.76 102.213 152.374 102.16C152.987 102.107 153.6 102.08 154.214 102.08C154.72 102.08 155.254 102.133 155.814 102.24C156.387 102.347 156.92 102.52 157.414 102.76C157.907 103 158.307 103.333 158.614 103.76C158.934 104.173 159.094 104.7 159.094 105.34C159.094 106.14 158.867 106.833 158.414 107.42C157.974 107.993 157.4 108.44 156.694 108.76C156.44 108.88 156.18 108.973 155.914 109.04C155.647 109.093 155.38 109.147 155.114 109.2C155.727 110.24 156.367 111.267 157.034 112.28C157.714 113.293 158.4 114.293 159.094 115.28C159.294 115.56 159.5 115.787 159.714 115.96C159.94 116.12 160.22 116.233 160.554 116.3C160.634 116.313 160.767 116.32 160.954 116.32C161.154 116.32 161.254 116.373 161.254 116.48Z" fill="#513517"/>
<path d="M136.748 109.44C136.748 108.667 136.661 107.88 136.488 107.08C136.328 106.28 136.061 105.54 135.688 104.86C135.314 104.18 134.814 103.633 134.188 103.22C133.561 102.793 132.788 102.58 131.868 102.58C130.974 102.58 130.214 102.8 129.588 103.24C128.961 103.68 128.454 104.253 128.068 104.96C127.681 105.653 127.394 106.407 127.208 107.22C127.034 108.02 126.948 108.793 126.948 109.54C126.948 110.327 127.028 111.12 127.188 111.92C127.348 112.707 127.614 113.433 127.988 114.1C128.361 114.753 128.861 115.28 129.488 115.68C130.128 116.08 130.921 116.28 131.868 116.28C132.814 116.28 133.601 116.073 134.228 115.66C134.854 115.247 135.348 114.707 135.708 114.04C136.081 113.36 136.348 112.62 136.508 111.82C136.668 111.02 136.748 110.227 136.748 109.44ZM138.928 109.38C138.928 110.86 138.654 112.167 138.108 113.3C137.574 114.42 136.781 115.293 135.728 115.92C134.688 116.547 133.401 116.86 131.868 116.86C130.374 116.86 129.094 116.56 128.028 115.96C126.974 115.347 126.168 114.493 125.608 113.4C125.048 112.293 124.768 111.007 124.768 109.54C124.768 108.513 124.934 107.547 125.268 106.64C125.601 105.733 126.081 104.933 126.708 104.24C127.334 103.547 128.081 103.007 128.948 102.62C129.828 102.22 130.801 102.02 131.868 102.02C133.361 102.02 134.628 102.333 135.668 102.96C136.721 103.573 137.528 104.433 138.088 105.54C138.648 106.633 138.928 107.913 138.928 109.38Z" fill="#513517"/>
<path d="M122.78 102.42C122.78 102.54 122.747 102.62 122.68 102.66C122.614 102.687 122.527 102.7 122.42 102.7C122.367 102.7 122.314 102.7 122.26 102.7C122.207 102.687 122.154 102.68 122.1 102.68C122.007 102.68 121.887 102.687 121.74 102.7C121.594 102.713 121.48 102.74 121.4 102.78C121.307 102.82 121.214 102.9 121.12 103.02C121.027 103.127 120.947 103.233 120.88 103.34C120.2 104.5 119.527 105.667 118.86 106.84C118.194 108 117.52 109.16 116.84 110.32C116.84 110.533 116.834 110.747 116.82 110.96C116.82 111.173 116.82 111.387 116.82 111.6V115.16C116.82 115.44 116.854 115.707 116.92 115.96C116.987 116.213 117.2 116.34 117.56 116.34C117.76 116.34 117.954 116.333 118.14 116.32C118.34 116.293 118.534 116.28 118.72 116.28C118.827 116.28 118.88 116.353 118.88 116.5C118.88 116.593 118.867 116.673 118.84 116.74C118.814 116.793 118.74 116.82 118.62 116.82C118.274 116.82 117.927 116.813 117.58 116.8C117.234 116.787 116.887 116.78 116.54 116.78C115.94 116.78 115.34 116.787 114.74 116.8C114.14 116.827 113.547 116.84 112.96 116.84C112.774 116.84 112.68 116.74 112.68 116.54C112.68 116.473 112.714 116.42 112.78 116.38C112.86 116.34 112.927 116.32 112.98 116.32C113.127 116.32 113.274 116.327 113.42 116.34C113.567 116.34 113.714 116.34 113.86 116.34C114.047 116.34 114.24 116.313 114.44 116.26C114.64 116.193 114.74 116.047 114.74 115.82V112.3C114.74 111.713 114.687 111.187 114.58 110.72C114.474 110.253 114.287 109.76 114.02 109.24C113.807 108.787 113.567 108.307 113.3 107.8C113.034 107.28 112.767 106.773 112.5 106.28C112.234 105.787 111.98 105.34 111.74 104.94C111.514 104.527 111.327 104.2 111.18 103.96C111.114 103.827 111.034 103.7 110.94 103.58C110.86 103.46 110.774 103.34 110.68 103.22C110.467 102.98 110.187 102.86 109.84 102.86C109.72 102.86 109.594 102.867 109.46 102.88C109.34 102.893 109.214 102.9 109.08 102.9C108.92 102.9 108.84 102.82 108.84 102.66C108.84 102.553 108.854 102.48 108.88 102.44C108.92 102.4 109 102.373 109.12 102.36C109.254 102.347 109.394 102.333 109.54 102.32C109.687 102.307 109.827 102.293 109.96 102.28C110.187 102.253 110.434 102.227 110.7 102.2C110.967 102.16 111.187 102.133 111.36 102.12C111.48 102.093 111.607 102.073 111.74 102.06C111.887 102.047 112.014 102.04 112.12 102.04C112.254 102.04 112.354 102.067 112.42 102.12C112.487 102.173 112.547 102.26 112.6 102.38C112.68 102.513 112.754 102.64 112.82 102.76C112.887 102.88 112.954 103.007 113.02 103.14C113.607 104.233 114.174 105.347 114.72 106.48C115.267 107.6 115.8 108.727 116.32 109.86C116.414 109.713 116.56 109.46 116.76 109.1C116.974 108.74 117.22 108.313 117.5 107.82C117.78 107.327 118.067 106.82 118.36 106.3C118.654 105.767 118.927 105.26 119.18 104.78C119.434 104.3 119.634 103.893 119.78 103.56C119.94 103.227 120.02 103.007 120.02 102.9C120.02 102.78 119.98 102.707 119.9 102.68C119.82 102.64 119.727 102.62 119.62 102.62C119.447 102.62 119.274 102.627 119.1 102.64C118.94 102.653 118.774 102.66 118.6 102.66C118.52 102.66 118.467 102.633 118.44 102.58C118.414 102.513 118.4 102.447 118.4 102.38C118.4 102.26 118.434 102.193 118.5 102.18C118.567 102.153 118.647 102.14 118.74 102.14C119.087 102.14 119.44 102.147 119.8 102.16C120.16 102.173 120.514 102.18 120.86 102.18C121.14 102.18 121.42 102.173 121.7 102.16C121.98 102.147 122.267 102.14 122.56 102.14C122.627 102.14 122.68 102.173 122.72 102.24C122.76 102.293 122.78 102.353 122.78 102.42Z" fill="#513517"/>
<path d="M107.415 110.64C107.415 110.72 107.395 110.793 107.355 110.86C107.315 110.927 107.249 110.96 107.155 110.96H105.915V115.24C104.982 115.56 104.055 115.913 103.135 116.3C102.695 116.487 102.229 116.607 101.735 116.66C101.255 116.713 100.782 116.74 100.315 116.74C99.9155 116.74 99.4688 116.693 98.9755 116.6C98.4821 116.507 98.0021 116.373 97.5355 116.2C97.0821 116.027 96.6821 115.827 96.3355 115.6C95.3221 114.92 94.5688 114.04 94.0755 112.96C93.5955 111.88 93.3555 110.733 93.3555 109.52C93.3555 108.493 93.5155 107.527 93.8355 106.62C94.1688 105.713 94.6421 104.913 95.2555 104.22C95.8688 103.527 96.6021 102.987 97.4555 102.6C98.3221 102.2 99.2888 102 100.355 102C101.142 102 101.895 102.107 102.615 102.32C102.735 102.36 102.929 102.42 103.195 102.5C103.462 102.58 103.729 102.66 103.995 102.74C104.262 102.807 104.442 102.84 104.535 102.84C104.815 102.84 105.009 102.807 105.115 102.74C105.222 102.66 105.302 102.573 105.355 102.48C105.422 102.387 105.515 102.313 105.635 102.26H105.795C105.902 102.26 105.962 102.32 105.975 102.44C106.002 102.573 106.009 102.713 105.995 102.86C105.995 103.007 105.995 103.153 105.995 103.3C105.995 103.713 106.002 104.127 106.015 104.54C106.042 104.953 106.055 105.373 106.055 105.8C106.055 105.96 106.049 106.147 106.035 106.36C106.035 106.573 105.915 106.68 105.675 106.68C105.595 106.68 105.522 106.673 105.455 106.66C105.402 106.633 105.349 106.587 105.295 106.52C105.282 106.493 105.249 106.42 105.195 106.3C105.142 106.167 105.089 106.033 105.035 105.9C104.982 105.753 104.942 105.653 104.915 105.6C104.555 104.787 104.029 104.107 103.335 103.56C102.975 103.267 102.515 103.033 101.955 102.86C101.409 102.687 100.902 102.6 100.435 102.6C99.5421 102.6 98.7821 102.82 98.1555 103.26C97.5288 103.687 97.0221 104.247 96.6355 104.94C96.2488 105.633 95.9688 106.38 95.7955 107.18C95.6221 107.98 95.5355 108.753 95.5355 109.5C95.5355 110.287 95.6288 111.06 95.8155 111.82C96.0021 112.58 96.2888 113.267 96.6755 113.88C97.0755 114.493 97.5955 114.987 98.2355 115.36C98.8755 115.72 99.6421 115.9 100.535 115.9C100.802 115.9 101.122 115.873 101.495 115.82C101.869 115.767 102.242 115.673 102.615 115.54C102.989 115.407 103.295 115.227 103.535 115C103.789 114.773 103.915 114.487 103.915 114.14V111.5C103.915 111.287 103.809 111.153 103.595 111.1C103.395 111.033 103.222 111 103.075 111C102.875 111 102.675 111.013 102.475 111.04C102.275 111.053 102.075 111.06 101.875 111.06C101.769 111.06 101.695 111.027 101.655 110.96C101.629 110.893 101.615 110.813 101.615 110.72C101.615 110.64 101.629 110.567 101.655 110.5C101.682 110.42 101.749 110.38 101.855 110.38C102.069 110.38 102.275 110.387 102.475 110.4C102.675 110.4 102.882 110.4 103.095 110.4H104.515C104.742 110.4 104.969 110.4 105.195 110.4C105.422 110.4 105.649 110.393 105.875 110.38C106.102 110.38 106.322 110.373 106.535 110.36C106.749 110.333 106.962 110.32 107.175 110.32C107.255 110.32 107.315 110.36 107.355 110.44C107.395 110.507 107.415 110.573 107.415 110.64Z" fill="#513517"/>
<path d="M89.9538 116.44C89.9538 116.493 89.9471 116.567 89.9338 116.66C89.9204 116.74 89.8738 116.78 89.7938 116.78C89.6338 116.78 89.4738 116.773 89.3138 116.76C89.1671 116.747 89.0137 116.74 88.8537 116.74C88.2004 116.7 87.5337 116.68 86.8537 116.68C86.5604 116.68 86.2671 116.687 85.9738 116.7C85.6804 116.713 85.3871 116.727 85.0938 116.74C84.9604 116.753 84.8204 116.767 84.6737 116.78C84.5404 116.793 84.4004 116.8 84.2537 116.8C84.1471 116.8 84.0938 116.733 84.0938 116.6C84.0938 116.507 84.1004 116.42 84.1138 116.34C84.1271 116.26 84.1937 116.22 84.3137 116.22C84.4471 116.22 84.5737 116.227 84.6937 116.24C84.8137 116.24 84.9404 116.24 85.0737 116.24C85.2337 116.24 85.4204 116.2 85.6338 116.12C85.8604 116.04 85.9738 115.907 85.9738 115.72V103.3C85.9738 103.073 85.8871 102.927 85.7137 102.86C85.5404 102.78 85.3337 102.74 85.0938 102.74C84.8671 102.74 84.6538 102.747 84.4538 102.76C84.2671 102.76 84.1604 102.727 84.1338 102.66C84.1204 102.633 84.1138 102.573 84.1138 102.48C84.1138 102.427 84.1204 102.367 84.1338 102.3C84.1471 102.22 84.1871 102.18 84.2537 102.18C84.6937 102.18 85.1337 102.193 85.5737 102.22C86.0271 102.247 86.4737 102.26 86.9137 102.26H87.8138C88.0271 102.26 88.2404 102.26 88.4538 102.26C88.6804 102.26 88.9004 102.253 89.1138 102.24C89.2204 102.227 89.3204 102.22 89.4137 102.22C89.5204 102.207 89.6204 102.2 89.7137 102.2C89.8604 102.2 89.9338 102.273 89.9338 102.42C89.9338 102.5 89.9271 102.573 89.9137 102.64C89.9004 102.707 89.8404 102.74 89.7337 102.74C89.5737 102.74 89.4137 102.74 89.2537 102.74C89.1071 102.727 88.9538 102.72 88.7938 102.72C88.6338 102.72 88.4604 102.773 88.2738 102.88C88.1004 102.973 88.0137 103.113 88.0137 103.3V115.72C88.0137 115.893 88.0937 116.02 88.2537 116.1C88.4137 116.18 88.5737 116.22 88.7337 116.22C88.9071 116.22 89.0737 116.22 89.2337 116.22C89.4071 116.207 89.5804 116.2 89.7537 116.2C89.8871 116.2 89.9538 116.28 89.9538 116.44Z" fill="#513517"/>
<path d="M81.9 116.48C81.9 116.533 81.8867 116.593 81.86 116.66C81.8333 116.727 81.7867 116.76 81.72 116.76C81.3067 116.76 80.8867 116.767 80.46 116.78C80.0467 116.78 79.6267 116.78 79.2 116.78C78.9867 116.78 78.78 116.773 78.58 116.76C78.3933 116.733 78.22 116.647 78.06 116.5C78.0067 116.46 77.96 116.413 77.92 116.36C77.88 116.307 77.84 116.253 77.8 116.2C76.1467 113.893 74.4133 111.62 72.6 109.38L71.9 109.96V115.74C71.9 115.967 72.0067 116.113 72.22 116.18C72.4333 116.247 72.6733 116.28 72.94 116.28C73.2067 116.267 73.4067 116.26 73.54 116.26C73.7133 116.26 73.8 116.347 73.8 116.52C73.8 116.693 73.7267 116.78 73.58 116.78C73.1267 116.78 72.68 116.767 72.24 116.74C71.8 116.713 71.3533 116.7 70.9 116.7C70.46 116.7 70.0133 116.707 69.56 116.72C69.12 116.733 68.68 116.753 68.24 116.78C68.1333 116.713 68.08 116.62 68.08 116.5C68.08 116.407 68.0867 116.347 68.1 116.32C68.1267 116.293 68.1867 116.273 68.28 116.26C68.36 116.247 68.44 116.247 68.52 116.26C68.6 116.26 68.68 116.26 68.76 116.26C68.88 116.26 69.0267 116.253 69.2 116.24C69.3867 116.227 69.5467 116.187 69.68 116.12C69.8267 116.04 69.9 115.913 69.9 115.74V103.18C69.9 103.047 69.8067 102.927 69.62 102.82C69.4467 102.713 69.3067 102.66 69.2 102.66H68.76C68.6667 102.66 68.58 102.667 68.5 102.68C68.42 102.68 68.3333 102.68 68.24 102.68C68.1067 102.68 68.0333 102.64 68.02 102.56C68.0067 102.48 68 102.393 68 102.3C68 102.193 68.0467 102.14 68.14 102.14C68.6067 102.14 69.0667 102.153 69.52 102.18C69.9867 102.207 70.4467 102.22 70.9 102.22C71.3267 102.22 71.7467 102.207 72.16 102.18C72.5867 102.153 73.0067 102.14 73.42 102.14C73.58 102.14 73.66 102.233 73.66 102.42C73.66 102.473 73.64 102.533 73.6 102.6C73.5733 102.653 73.5267 102.68 73.46 102.68C73.3133 102.68 73.1667 102.68 73.02 102.68C72.8733 102.667 72.7267 102.66 72.58 102.66C72.4333 102.66 72.28 102.707 72.12 102.8C71.9733 102.893 71.9 103.02 71.9 103.18V106.22C71.9 106.74 71.9 107.26 71.9 107.78C71.9 108.3 71.8933 108.82 71.88 109.34C73.2133 108.087 74.52 106.8 75.8 105.48C76.28 104.973 76.7467 104.473 77.2 103.98C77.6533 103.473 78.0867 102.947 78.5 102.4C78.5933 102.267 78.7 102.2 78.82 102.2C79.02 102.2 79.22 102.207 79.42 102.22C79.62 102.22 79.82 102.22 80.02 102.22C80.1933 102.22 80.36 102.22 80.52 102.22C80.6933 102.207 80.8667 102.2 81.04 102.2C81.1067 102.2 81.1467 102.233 81.16 102.3C81.1867 102.353 81.2 102.407 81.2 102.46C81.2 102.513 81.18 102.573 81.14 102.64C81.1133 102.693 81.0667 102.72 81 102.72C80.6267 102.72 80.2733 102.773 79.94 102.88C79.6067 102.987 79.3 103.173 79.02 103.44L74.06 108.16C75.06 109.44 76.0733 110.72 77.1 112C78.14 113.267 79.2067 114.507 80.3 115.72C80.5 115.933 80.72 116.067 80.96 116.12C81.2133 116.173 81.4333 116.213 81.62 116.24C81.8067 116.267 81.9 116.347 81.9 116.48Z" fill="#513517"/>
<defs>
<clipPath id="clip0_4211_3142">
<rect width="131.37" height="66.03" fill="white" transform="translate(75 23)"/>
</clipPath>
</defs>
</svg>
