<svg width="280" height="140" viewBox="0 0 280 140" fill="none" xmlns="http://www.w3.org/2000/svg">
<path d="M247.591 83.8415C245.141 83.8415 243.019 83.2515 241.226 82.0716C239.434 80.8917 238.05 79.258 237.074 77.1704C236.121 75.0602 235.645 72.6323 235.645 69.8867C235.645 67.1865 236.121 64.804 237.074 62.7392C238.05 60.6516 239.434 59.0179 241.226 57.838C243.019 56.6354 245.141 56.0341 247.591 56.0341C250.042 56.0341 252.152 56.6354 253.922 57.838C255.714 59.0179 257.087 60.6516 258.04 62.7392C258.993 64.8267 259.47 67.2092 259.47 69.8867C259.47 72.6323 258.993 75.0602 258.04 77.1704C257.087 79.258 255.714 80.8917 253.922 82.0716C252.152 83.2515 250.042 83.8415 247.591 83.8415ZM248.442 79.9954C249.713 79.882 250.825 79.4395 251.778 78.668C252.753 77.8965 253.513 76.8414 254.058 75.5027C254.603 74.1412 254.875 72.5642 254.875 70.7717C254.875 70.5221 254.864 70.2725 254.841 70.0229C254.841 69.7733 254.83 69.5237 254.807 69.2741C254.648 67.3 254.217 65.6095 253.513 64.2027C252.833 62.7959 251.959 61.7294 250.893 61.0033C249.826 60.2545 248.646 59.8801 247.353 59.8801C247.262 59.8801 247.16 59.8801 247.047 59.8801C246.956 59.8801 246.854 59.8915 246.74 59.9142C245.492 60.0049 244.38 60.436 243.405 61.2075C242.429 61.979 241.658 63.0341 241.09 64.3729C240.523 65.6889 240.239 67.2433 240.239 69.0358C240.239 69.2627 240.239 69.501 240.239 69.7506C240.262 70.0002 240.285 70.2498 240.307 70.4994C240.466 72.4961 240.897 74.2093 241.601 75.6388C242.304 77.0456 243.201 78.1348 244.29 78.9063C245.379 79.6551 246.581 80.0294 247.897 80.0294C247.988 80.0294 248.079 80.0294 248.17 80.0294C248.261 80.0068 248.351 79.9954 248.442 79.9954Z" fill="#E10048"/>
<path d="M226.312 83.9436V81.1867C225.541 82.0716 224.542 82.741 223.317 83.1948C222.115 83.6259 220.901 83.8415 219.675 83.8415C217.202 83.8415 215.035 83.2856 213.174 82.1737C211.314 81.0392 209.862 79.4281 208.818 77.3406C207.774 75.2304 207.252 72.7344 207.252 69.8527C207.252 67.0844 207.774 64.6679 208.818 62.603C209.862 60.5155 211.314 58.9044 213.174 57.7699C215.035 56.6127 217.191 56.0341 219.641 56.0341C221.071 56.0341 222.421 56.2042 223.692 56.5446C224.962 56.8623 226.085 57.2934 227.061 57.838C228.06 58.3825 228.808 59.0065 229.308 59.7099L228.355 65.5301H226.108C225.972 64.3048 225.722 63.3291 225.359 62.603C225.019 61.8769 224.633 61.3323 224.202 60.9693C223.658 60.4928 222.977 60.1524 222.16 59.9482C221.366 59.7213 220.447 59.6078 219.403 59.6078C218.019 59.6078 216.76 59.9822 215.625 60.731C214.513 61.4798 213.628 62.6144 212.97 64.1346C212.312 65.6549 211.983 67.5609 211.983 69.8527C211.983 71.9402 212.346 73.7441 213.072 75.2644C213.798 76.7847 214.774 77.9532 215.999 78.7701C217.225 79.587 218.586 79.9954 220.084 79.9954C221.173 79.9954 222.205 79.7458 223.181 79.2466C224.179 78.7247 224.996 77.9759 225.632 77.0002C226.267 76.0019 226.585 74.8106 226.585 73.4265C226.585 73.313 226.585 73.1882 226.585 73.0521C226.585 72.9159 226.573 72.7798 226.551 72.6436H220.22L219.539 69.7165L230.703 68.4232L230.022 83.2629L226.312 83.9436Z" fill="#E10048"/>
<path d="M190.142 83.8415C187.692 83.8415 185.57 83.2515 183.777 82.0716C181.985 80.8917 180.601 79.258 179.625 77.1704C178.672 75.0602 178.196 72.6323 178.196 69.8867C178.196 67.1865 178.672 64.804 179.625 62.7392C180.601 60.6516 181.985 59.0179 183.777 57.838C185.57 56.6354 187.692 56.0341 190.142 56.0341C192.593 56.0341 194.703 56.6354 196.473 57.838C198.265 59.0179 199.638 60.6516 200.591 62.7392C201.544 64.8267 202.021 67.2092 202.021 69.8867C202.021 72.6323 201.544 75.0602 200.591 77.1704C199.638 79.258 198.265 80.8917 196.473 82.0716C194.703 83.2515 192.593 83.8415 190.142 83.8415ZM190.993 79.9954C192.264 79.882 193.376 79.4395 194.329 78.668C195.304 77.8965 196.064 76.8414 196.609 75.5027C197.154 74.1412 197.426 72.5642 197.426 70.7717C197.426 70.5221 197.415 70.2725 197.392 70.0229C197.392 69.7733 197.381 69.5237 197.358 69.2741C197.199 67.3 196.768 65.6095 196.064 64.2027C195.384 62.7959 194.51 61.7294 193.444 61.0033C192.377 60.2545 191.197 59.8801 189.904 59.8801C189.813 59.8801 189.711 59.8801 189.598 59.8801C189.507 59.8801 189.405 59.8915 189.291 59.9142C188.043 60.0049 186.931 60.436 185.956 61.2075C184.98 61.979 184.209 63.0341 183.641 64.3729C183.074 65.6889 182.79 67.2433 182.79 69.0358C182.79 69.2627 182.79 69.501 182.79 69.7506C182.813 70.0002 182.836 70.2498 182.858 70.4994C183.017 72.4961 183.448 74.2093 184.152 75.6388C184.855 77.0456 185.752 78.1348 186.841 78.9063C187.93 79.6551 189.132 80.0294 190.449 80.0294C190.539 80.0294 190.63 80.0294 190.721 80.0294C190.812 80.0068 190.902 79.9954 190.993 79.9954Z" fill="#E10048"/>
<path d="M171.3 83.6713C168.396 81.5837 165.831 79.3033 163.608 76.83C161.407 74.3567 159.569 71.7473 158.094 69.0017L162.11 66.8915C162.269 67.1865 162.417 67.4588 162.553 67.7084C162.689 67.9353 162.859 68.1962 163.063 68.4912C163.767 68.3777 164.425 68.1622 165.037 67.8445C165.673 67.5268 166.183 67.0617 166.569 66.449C166.977 65.8137 167.182 64.9968 167.182 63.9984C167.182 62.7278 166.796 61.7294 166.024 61.0033C165.253 60.2772 164.209 59.9141 162.893 59.9141C162.099 59.9141 161.259 59.9255 160.374 59.9482C159.512 59.9708 158.684 60.0162 157.89 60.0843L157.856 83.2288L153.669 83.6713L153.091 60.4587L151.423 60.6969L150.742 57.7018C151.378 57.5656 152.206 57.4295 153.227 57.2933C154.248 57.1345 155.36 56.987 156.562 56.8509C157.765 56.692 158.945 56.5672 160.102 56.4765C161.282 56.3857 162.337 56.3403 163.267 56.3403C165.9 56.3403 167.987 56.9984 169.53 58.3144C171.073 59.6305 171.845 61.5252 171.845 63.9984C171.845 65.4733 171.493 66.71 170.789 67.7084C170.086 68.7068 169.167 69.4896 168.032 70.0568C166.921 70.6014 165.729 70.9418 164.459 71.0779C166.592 74.3681 169.689 77.8284 173.751 81.4589L171.3 83.6713Z" fill="#E10048"/>
<path d="M121.252 83.8415C118.802 83.8415 116.68 83.2515 114.888 82.0716C113.095 80.8917 111.711 79.258 110.735 77.1704C109.782 75.0602 109.306 72.6323 109.306 69.8867C109.306 67.1865 109.782 64.804 110.735 62.7392C111.711 60.6516 113.095 59.0179 114.888 57.838C116.68 56.6354 118.802 56.0341 121.252 56.0341C123.703 56.0341 125.813 56.6354 127.583 57.838C129.376 59.0179 130.748 60.6516 131.701 62.7392C132.654 64.8267 133.131 67.2092 133.131 69.8867C133.131 72.6323 132.654 75.0602 131.701 77.1704C130.748 79.258 129.376 80.8917 127.583 82.0716C125.813 83.2515 123.703 83.8415 121.252 83.8415ZM122.103 79.9954C123.374 79.882 124.486 79.4395 125.439 78.668C126.414 77.8965 127.175 76.8414 127.719 75.5027C128.264 74.1412 128.536 72.5642 128.536 70.7717C128.536 70.5221 128.525 70.2725 128.502 70.0229C128.502 69.7733 128.491 69.5237 128.468 69.2741C128.309 67.3 127.878 65.6095 127.175 64.2027C126.494 62.7959 125.62 61.7294 124.554 61.0033C123.487 60.2545 122.307 59.8801 121.014 59.8801C120.923 59.8801 120.821 59.8801 120.708 59.8801C120.617 59.8801 120.515 59.8915 120.401 59.9142C119.153 60.0049 118.042 60.436 117.066 61.2075C116.09 61.979 115.319 63.0341 114.751 64.3729C114.184 65.6889 113.901 67.2433 113.901 69.0358C113.901 69.2627 113.901 69.501 113.901 69.7506C113.923 70.0002 113.946 70.2498 113.969 70.4994C114.127 72.4961 114.559 74.2093 115.262 75.6388C115.965 77.0456 116.862 78.1348 117.951 78.9063C119.04 79.6551 120.243 80.0294 121.559 80.0294C121.649 80.0294 121.74 80.0294 121.831 80.0294C121.922 80.0068 122.012 79.9954 122.103 79.9954Z" fill="#E10048"/>
<path d="M92.8376 83.6713V73.6307L84.0903 56.7488L89.5701 56L94.9819 69.3762L102.776 56.2383L105.975 57.2593L97.977 73.7668L97.2963 83.2288L92.8376 83.6713Z" fill="#E10048"/>
<path d="M76.767 83.9436V81.1867C75.9955 82.0716 74.9971 82.741 73.7718 83.1948C72.5692 83.6259 71.3552 83.8415 70.1299 83.8415C67.6566 83.8415 65.4897 83.2856 63.6291 82.1737C61.7684 81.0392 60.3162 79.4281 59.2724 77.3406C58.2287 75.2304 57.7068 72.7344 57.7068 69.8527C57.7068 67.0844 58.2287 64.6679 59.2724 62.603C60.3162 60.5155 61.7684 58.9044 63.6291 57.7699C65.4897 56.6127 67.6453 56.0341 70.0959 56.0341C71.5254 56.0341 72.8755 56.2042 74.1462 56.5446C75.4169 56.8623 76.54 57.2934 77.5157 57.838C78.5141 58.3825 79.2629 59.0065 79.7621 59.7099L78.8091 65.5301H76.5627C76.4266 64.3048 76.177 63.3291 75.8139 62.603C75.4736 61.8769 75.0878 61.3323 74.6567 60.9693C74.1121 60.4928 73.4314 60.1524 72.6146 59.9482C71.8204 59.7213 70.9014 59.6078 69.8576 59.6078C68.4735 59.6078 67.2142 59.9822 66.0796 60.731C64.9678 61.4798 64.0829 62.6144 63.4248 64.1346C62.7668 65.6549 62.4378 67.5609 62.4378 69.8527C62.4378 71.9402 62.8008 73.7441 63.5269 75.2644C64.253 76.7847 65.2287 77.9532 66.454 78.7701C67.6793 79.587 69.0408 79.9954 70.5384 79.9954C71.6275 79.9954 72.6599 79.7458 73.6356 79.2466C74.634 78.7247 75.4509 77.9759 76.0862 77.0002C76.7216 76.0019 77.0392 74.8106 77.0392 73.4265C77.0392 73.313 77.0392 73.1882 77.0392 73.0521C77.0392 72.9159 77.0279 72.7798 77.0052 72.6436H70.6745L69.9938 69.7165L81.1576 68.4232L80.4769 83.2629L76.767 83.9436Z" fill="#E10048"/>
<path d="M45.8013 83.6713V56L51.0428 56.6807L50.0217 83.2288L45.8013 83.6713Z" fill="#E10048"/>
<path d="M35.3502 83.6713L26.8753 69.9207L24.9693 71.7246V83.2288L20.6807 83.6713L20 56L24.9693 56.6807V67.8105L34.9758 56L40.3876 57.1572L29.5982 67.334L41.0002 82.8204L35.3502 83.6713Z" fill="#E10048"/>
</svg>
