<svg width="361" height="361" viewBox="0 0 361 361" fill="none" xmlns="http://www.w3.org/2000/svg">
<path fill-rule="evenodd" clip-rule="evenodd" d="M21.6604 173.28C25.6479 173.28 28.8804 176.512 28.8804 180.5C28.8804 268.357 98.5685 339.34 184.127 339.34C269.684 339.34 339.34 268.391 339.34 180.5C339.34 176.512 342.573 173.28 346.56 173.28C350.548 173.28 353.78 176.512 353.78 180.5C353.78 276.066 277.956 353.78 184.127 353.78C90.2983 353.78 14.4404 276.033 14.4404 180.5C14.4404 176.512 17.6729 173.28 21.6604 173.28Z" fill="black"/>
<g clip-path="url(#clip0_4211_3420)">
<path d="M304.182 186.795H223.17C207.999 186.795 204.352 195.664 215.098 206.553L229.978 221.631L291.879 284.354C317.262 257.057 330.683 224.291 331.753 186.795H304.23H304.182Z" fill="#99B901"/>
<path d="M152.614 157.183L95.3321 99.1404C95.3321 99.1404 95.089 98.894 94.9431 98.7955L75.7844 79.3823C50.4015 106.679 36.9807 139.445 35.9109 176.941H144.542C159.713 176.941 163.36 168.072 152.614 157.183Z" fill="#FFA426"/>
<path d="M144.542 186.795H35.9109C36.9807 224.291 50.4015 257.057 75.7844 284.354L94.9431 264.941C94.9431 264.941 95.1862 264.694 95.3321 264.596L152.614 206.553C163.312 195.714 159.713 186.795 144.542 186.795Z" fill="#105F00"/>
<path d="M178.969 221.68C178.969 206.307 170.216 202.611 159.47 213.501L143.375 229.81L82.6892 291.301C109.628 317.021 141.965 330.62 178.969 331.704V304.506C178.969 304.26 178.969 304.013 178.969 303.767V221.68Z" fill="#E10048"/>
<path d="M265.864 271.937C265.864 271.937 265.621 271.691 265.524 271.543L208.242 213.501C197.544 202.661 188.743 206.307 188.743 221.68V244.148V331.704C225.748 330.62 258.084 317.021 285.023 291.301L265.913 271.937H265.864Z" fill="#E28301"/>
</g>
<path d="M288.124 151.928C272.024 162.235 209.38 177.305 209.38 177.305C209.38 177.305 249.545 126.586 265.645 116.279C281.745 105.972 299.836 105.598 306.013 115.463C312.189 125.327 304.19 141.655 288.09 151.962L288.124 151.928Z" fill="#FFA426"/>
<path d="M165.539 75.7997C172.694 93.6244 176.171 158.426 176.171 158.426C176.171 158.426 133.879 109.51 126.69 91.6854C119.501 73.8608 122.403 55.9 133.137 51.5119C143.87 47.1237 158.35 58.009 165.539 75.8337V75.7997Z" fill="#E10048"/>
<path d="M246.48 92.0578C238.751 109.644 194.94 157.199 194.94 157.199C194.94 157.199 200.408 92.534 208.138 74.9474C215.867 57.3609 230.684 46.9518 241.282 51.6801C251.881 56.4084 254.176 74.4712 246.48 92.0578Z" fill="#99B901"/>
<path d="M331.822 136.806C339.632 136.806 345.964 130.424 345.964 122.553C345.964 114.681 339.632 108.3 331.822 108.3C324.011 108.3 317.68 114.681 317.68 122.553C317.68 130.424 324.011 136.806 331.822 136.806Z" fill="#E28301"/>
<path d="M187.422 57.3858C195.233 57.3858 201.565 51.0045 201.565 43.1328C201.565 35.2611 195.233 28.8799 187.422 28.8799C179.612 28.8799 173.28 35.2611 173.28 43.1328C173.28 51.0045 179.612 57.3858 187.422 57.3858Z" fill="#99B901"/>
<path d="M305.674 178.297C311.005 178.297 315.327 173.942 315.327 168.569C315.327 163.196 311.005 158.84 305.674 158.84C300.342 158.84 296.021 163.196 296.021 168.569C296.021 173.942 300.342 178.297 305.674 178.297Z" fill="#E10048"/>
<path d="M328.014 78.3808C333.345 78.3808 337.667 74.0251 337.667 68.6521C337.667 63.279 333.345 58.9233 328.014 58.9233C322.682 58.9233 318.36 63.279 318.36 68.6521C318.36 74.0251 322.682 78.3808 328.014 78.3808Z" fill="#E10048"/>
<path d="M264.088 38.3432C269.419 38.3432 273.741 33.9875 273.741 28.6145C273.741 23.2414 269.419 18.8857 264.088 18.8857C258.756 18.8857 254.435 23.2414 254.435 28.6145C254.435 33.9875 258.756 38.3432 264.088 38.3432Z" fill="#FFA426"/>
<path d="M125.173 214.397C130.504 214.397 134.826 210.042 134.826 204.669C134.826 199.296 130.504 194.94 125.173 194.94C119.841 194.94 115.52 199.296 115.52 204.669C115.52 210.042 119.841 214.397 125.173 214.397Z" fill="white"/>
<path d="M158.134 244.17C161.732 244.17 164.648 241.231 164.648 237.605C164.648 233.979 161.732 231.04 158.134 231.04C154.537 231.04 151.62 233.979 151.62 237.605C151.62 241.231 154.537 244.17 158.134 244.17Z" fill="white"/>
<path d="M107.594 229.73C111.192 229.73 114.108 226.791 114.108 223.165C114.108 219.539 111.192 216.6 107.594 216.6C103.997 216.6 101.08 219.539 101.08 223.165C101.08 226.791 103.997 229.73 107.594 229.73Z" fill="white"/>
<path d="M136.474 164.751C140.072 164.751 142.988 161.811 142.988 158.185C142.988 154.559 140.072 151.62 136.474 151.62C132.876 151.62 129.96 154.559 129.96 158.185C129.96 161.811 132.876 164.751 136.474 164.751Z" fill="white"/>
<path d="M201.455 273.05C205.052 273.05 207.969 270.111 207.969 266.485C207.969 262.859 205.052 259.92 201.455 259.92C197.857 259.92 194.94 262.859 194.94 266.485C194.94 270.111 197.857 273.05 201.455 273.05Z" fill="white"/>
<path d="M230.335 208.07C233.932 208.07 236.849 205.131 236.849 201.505C236.849 197.879 233.932 194.94 230.335 194.94C226.737 194.94 223.82 197.879 223.82 201.505C223.82 205.131 226.737 208.07 230.335 208.07Z" fill="white"/>
<path d="M161.273 272.158C166.605 272.158 170.926 267.802 170.926 262.429C170.926 257.056 166.605 252.7 161.273 252.7C155.942 252.7 151.62 257.056 151.62 262.429C151.62 267.802 155.942 272.158 161.273 272.158Z" fill="white"/>
<path d="M211.813 250.498C217.144 250.498 221.466 246.142 221.466 240.769C221.466 235.396 217.144 231.04 211.813 231.04C206.482 231.04 202.16 235.396 202.16 240.769C202.16 246.142 206.482 250.498 211.813 250.498Z" fill="white"/>
<path d="M255.133 221.618C260.464 221.618 264.786 217.262 264.786 211.889C264.786 206.516 260.464 202.16 255.133 202.16C249.801 202.16 245.479 206.516 245.479 211.889C245.479 217.262 249.801 221.618 255.133 221.618Z" fill="white"/>
<path d="M110.733 163.857C116.065 163.857 120.386 159.502 120.386 154.129C120.386 148.756 116.065 144.4 110.733 144.4C105.402 144.4 101.08 148.756 101.08 154.129C101.08 159.502 105.402 163.857 110.733 163.857Z" fill="white"/>
<path d="M150.342 26.6772C155.673 26.6772 159.995 22.3215 159.995 16.9485C159.995 11.5754 155.673 7.21973 150.342 7.21973C145.01 7.21973 140.688 11.5754 140.688 16.9485C140.688 22.3215 145.01 26.6772 150.342 26.6772Z" fill="#E28301"/>
<path d="M280.796 87.2285C288.606 87.2285 294.938 80.8473 294.938 72.9756C294.938 65.1039 288.606 58.7227 280.796 58.7227C272.985 58.7227 266.654 65.1039 266.654 72.9756C266.654 80.8473 272.985 87.2285 280.796 87.2285Z" fill="#105F00"/>
<defs>
<clipPath id="clip0_4211_3420">
<rect width="295.793" height="252.322" fill="white" transform="translate(35.9109 79.3823)"/>
</clipPath>
</defs>
</svg>
